<svg xmlns="http://www.w3.org/2000/svg" width="17.254" height="14.667" viewBox="0 0 17.254 14.667">
  <path id="eye-close" d="M9.63,5.338q-.494-.053-1-.061a10.594,10.594,0,0,0-4.47,1.057A11.392,11.392,0,0,0,1.113,8.552,3.757,3.757,0,0,0,0,10.446a3.789,3.789,0,0,0,1.113,1.895,11.218,11.218,0,0,0,3.043,2.217l.119.057L3.2,16.5l1.467.867,7.928-13.8L11.179,2.7,9.629,5.339Zm3.348.941L11.9,8.147a3.753,3.753,0,0,1,.79,2.3,3.978,3.978,0,0,1-4.064,3.886c-.1,0-.191-.011-.287-.017L7.626,15.55c.329.035.661.061,1,.065A10.638,10.638,0,0,0,13.1,14.558a11.4,11.4,0,0,0,3.044-2.217,3.755,3.755,0,0,0,1.113-1.895A3.789,3.789,0,0,0,16.14,8.552,11.223,11.223,0,0,0,13.1,6.335c-.039-.019-.08-.036-.119-.055Zm-4.351.28c.1,0,.2,0,.293.011L8.084,8.016a2.511,2.511,0,0,0-2.051,2.429,2.384,2.384,0,0,0,.157.853h0l-.837,1.45a3.756,3.756,0,0,1-.79-2.3A3.978,3.978,0,0,1,8.626,6.56Zm2.43,3.049L9.174,12.87a2.508,2.508,0,0,0,2.039-2.424,2.385,2.385,0,0,0-.157-.836Z" transform="translate(0 -2.7)" fill="#fccead"/>
</svg>
