<svg xmlns="http://www.w3.org/2000/svg" xmlns:xlink="http://www.w3.org/1999/xlink" width="21.4" height="27.713" viewBox="0 0 21.4 27.713">
  <defs>
    <clipPath id="clip-path">
      <rect id="Rectangle_1311" data-name="Rectangle 1311" width="21.4" height="27.713" fill="#fff"/>
    </clipPath>
  </defs>
  <g id="Group_2631" data-name="Group 2631" transform="translate(0 0)">
    <g id="Group_2630" data-name="Group 2630" transform="translate(0 0)" clip-path="url(#clip-path)">
      <path id="Path_3773" data-name="Path 3773" d="M10.7,0A10.7,10.7,0,0,0,0,10.7c0,5.039,7.78,14.153,10.072,16.731a.84.84,0,0,0,1.257,0C13.621,24.853,21.4,15.739,21.4,10.7A10.7,10.7,0,0,0,10.7,0m0,15.477a5.29,5.29,0,1,1,5.29-5.29,5.3,5.3,0,0,1-5.29,5.29" transform="translate(0 0)" fill="#fff"/>
    </g>
  </g>
</svg>
