<svg xmlns="http://www.w3.org/2000/svg" width="173.675" height="170.183" viewBox="0 0 173.675 170.183">
  <g id="Group_1550" data-name="Group 1550" transform="translate(-759.357 -173.344) rotate(-19)">
    <g id="Group_1549" data-name="Group 1549" transform="translate(646.915 453.627)">
      <path id="Path_3220" data-name="Path 3220" d="M749.286,586.072c-1.124,0-2.253-.078-3.359-.169-10.728-.894-24.178-3.083-33.017-12.165a7.158,7.158,0,0,1-2.293-4.043,4.1,4.1,0,0,1,.636-2.654c-.354-.207-.727-.439-1.126-.692s-.783-.5-1.063-.641c-.52-.263-1.048-.566-1.586-.876a11.505,11.505,0,0,0-5.318-1.965c-1.907-.308-4.068-.657-5.768-2.644a7.8,7.8,0,0,1-1.523-6.5,12.45,12.45,0,0,1,1.919-4.695,50.567,50.567,0,0,1-13.678-11.132,10.536,10.536,0,0,1-2.808-5.432,5.549,5.549,0,0,1,1.588-4.563l-6.619-5.235c-2.71-2.146-5.4-4.531-5.866-7.958a6.18,6.18,0,0,1,2.886-5.844,5.1,5.1,0,0,1,1.275-.573,24.514,24.514,0,0,0-4.889-4.609c-.429-.306-.871-.6-1.313-.891a20.792,20.792,0,0,1-3.561-2.763,7.119,7.119,0,0,1-2.177-6.488,4.912,4.912,0,0,1,3.419-3.5,21.529,21.529,0,0,0-4.432-3.712l-.5-.351c-2.589-1.816-5.624-4.361-6.127-7.98a6.4,6.4,0,0,1,2.775-5.915,5.39,5.39,0,0,1,1.144-.6l-8.7-9.478c-1.361-1.482-2.578-3.831-2.227-5.735a3.071,3.071,0,0,1,1.712-2.263,4.936,4.936,0,0,1,2.591-.351,49.511,49.511,0,0,1,19.936,5.841,3.192,3.192,0,0,1,1.429-1.647,5.76,5.76,0,0,1,4.616.081A27.537,27.537,0,0,1,691.287,469.4a7.8,7.8,0,0,1,2.7-4.748,4.75,4.75,0,0,1,3.932-.6c6.745,1.634,10.932,7.793,14.261,13.165.02-.063.041-.131.063-.2a10.443,10.443,0,0,1,3.945-5.748c4.743-3.207,8.377.53,11.034,3.253l.5.513a27.63,27.63,0,0,1,6.359,10.117l2.285-4.26a4.464,4.464,0,0,1,1.816-2.051c1.21-.616,2.641-.371,4.263.732,5.634,3.818,9.2,10.566,10.642,20.1a15.777,15.777,0,0,1,3.869-2.672,18.007,18.007,0,0,0,1.538-.962c1.657-1.1,3.508-2.356,5.308-2.179,5.67.53,5.574,7.291,5.516,11.329-.008.647-.015,1.235,0,1.73a44.169,44.169,0,0,1-.162,5.377c2.407-2.447,5.074-3.536,7.776-3.1,4.538.732,5.339,6.026,4.644,10.337-.227,1.422-.364,2.821-.5,4.21-.151,1.553-.306,3.139-.594,4.748a3.841,3.841,0,0,1,2.7.753c2,1.573,2.137,4.4,1.387,6.5a16.506,16.506,0,0,1-1.952,3.561c-.316.472-.629.947-.917,1.432a31.74,31.74,0,0,0-2.9,7.8,39.092,39.092,0,0,1-2.6,7.382,20.6,20.6,0,0,1-19.332,11.023L751.5,568.6a4.009,4.009,0,0,0,2.177,2.659c.417.237.856.452,1.293.669a9.719,9.719,0,0,1,4.013,2.967,5.745,5.745,0,0,1,.76,4.632,8.153,8.153,0,0,1-3.882,5.106A13.3,13.3,0,0,1,749.286,586.072ZM674.738,510.64a2.128,2.128,0,0,0-1.106.364,3.693,3.693,0,0,0-1.727,3.356c.346,2.5,2.531,4.419,4.935,6.324l8.119,6.422a1.264,1.264,0,0,1-.558,2.235c-1.078.2-1.73,1.654-1.591,2.826a8.418,8.418,0,0,0,2.233,4.1,49.817,49.817,0,0,0,14.587,11.465,1.261,1.261,0,0,1-.26,2.318c-.669.192-1.652,2.2-2.02,4.139a5.284,5.284,0,0,0,.96,4.389c1.1,1.285,2.493,1.51,4.253,1.793a13.832,13.832,0,0,1,6.175,2.268c.5.288.993.571,1.47.816.336.167.783.447,1.273.758a9.83,9.83,0,0,0,2.45,1.28,1.281,1.281,0,0,1,1.237,1.283,1.243,1.243,0,0,1-1.235,1.243.642.642,0,0,0-.447.247,1.546,1.546,0,0,0-.361,1.131,5.02,5.02,0,0,0,1.6,2.578c8.256,8.478,21.128,10.551,31.416,11.41,2.967.247,6.074.376,8.5-.962a5.64,5.64,0,0,0,2.647-3.48,3.261,3.261,0,0,0-.389-2.624,7.658,7.658,0,0,0-3.048-2.129c-.48-.235-.96-.472-1.417-.735-2.21-1.245-4.164-3.74-3.227-6.273a1.256,1.256,0,0,1,.811-.77l5.086-1.563a1.271,1.271,0,0,1,1.141-.49c.114.013.227.025.341.035l.641-.2a1.256,1.256,0,0,1,1.2.253,18.366,18.366,0,0,0,15.529-9.67,36.9,36.9,0,0,0,2.414-6.915,34.2,34.2,0,0,1,3.162-8.4c.311-.523.649-1.038.99-1.548a14.228,14.228,0,0,0,1.679-3.01c.445-1.25.389-2.912-.573-3.672a1.526,1.526,0,0,0-1.558-.028,1.246,1.246,0,0,0-.237.157c-.093.313-.192.626-.3.942a1.229,1.229,0,0,1-1.364.841,1.261,1.261,0,0,1-1.088-1.174,2.974,2.974,0,0,1,.46-1.788,40.308,40.308,0,0,0,1.033-6.68c.139-1.437.283-2.886.52-4.361.114-.7,1-6.872-2.556-7.447-3.76-.578-6.745,3.427-8.193,5.882a1.263,1.263,0,0,1-2.331-.866,45.8,45.8,0,0,0,.788-9.7c-.015-.528-.008-1.157,0-1.846.066-4.462-.134-8.493-3.228-8.781-.843-.068-2.495.987-3.672,1.768-.644.427-1.248.823-1.768,1.1-3.177,1.659-4.66,3.291-4.528,4.985h0a1.264,1.264,0,0,1-2.52.194v-.01c-.844-11.145-4.225-18.8-10.051-22.746-.755-.51-1.384-.725-1.707-.568a2.68,2.68,0,0,0-.73.992l-3.74,6.978a1.2,1.2,0,0,1-1.281.654,1.259,1.259,0,0,1-1.063-.97,25.339,25.339,0,0,0-6.584-11.943l-.51-.52c-3-3.076-5.031-4.806-7.809-2.924a7.933,7.933,0,0,0-2.942,4.382,9,9,0,0,1-1.3,2.892,1.394,1.394,0,0,1-1.068.513,1.265,1.265,0,0,1-1.023-.6l-.5-.816c-3.376-5.49-7.2-11.715-13.44-13.223a2.266,2.266,0,0,0-1.9.22c-1.528,1.053-1.965,4.49-2.225,6.543l-.033.258a1.262,1.262,0,0,1-1.083,1.091,1.281,1.281,0,0,1-1.333-.76,24.884,24.884,0,0,0-14.339-13.554,3.592,3.592,0,0,0-2.578-.23.832.832,0,0,0-.326.742l.086.051a1.263,1.263,0,0,1-1.207,2.215,2.217,2.217,0,0,1-.374-.222,46.929,46.929,0,0,0-20.91-6.69,2.811,2.811,0,0,0-1.286.088.579.579,0,0,0-.356.462c-.152.839.566,2.44,1.6,3.571l10.731,11.69a1.261,1.261,0,0,1-1.553,1.95,1.907,1.907,0,0,0-2.061.23,3.906,3.906,0,0,0-1.692,3.48c.364,2.636,2.768,4.644,5.073,6.26l.5.346c2.452,1.715,5.238,3.659,6.448,6.715a1.261,1.261,0,0,1-1.775,1.576,1.514,1.514,0,0,0-1.291.028,2.449,2.449,0,0,0-1.359,1.558,4.788,4.788,0,0,0,1.533,4.137,18.5,18.5,0,0,0,3.147,2.417c.462.308.924.614,1.376.934a27.32,27.32,0,0,1,7.16,7.538,1.262,1.262,0,0,1-1.765,1.727A1.427,1.427,0,0,0,674.738,510.64Z" transform="translate(-646.915 -453.627)" fill="#2a2522"/>
      <path id="Path_3221" data-name="Path 3221" d="M748.144,567.666a1.242,1.242,0,0,1-.952-.434c-8.2-9.41-14.708-20.307-21-30.846-6.94-11.625-14.117-23.648-23.527-33.532-7.185-7.546-15.776-13.953-24.085-20.148-10.485-7.816-21.327-15.9-29.54-26.4a1.263,1.263,0,0,1,1.99-1.556c8.006,10.233,18.708,18.211,29.057,25.928,8.395,6.258,17.074,12.731,24.406,20.433,9.607,10.089,16.855,22.231,23.868,33.979,6.233,10.443,12.68,21.241,20.734,30.482a1.263,1.263,0,0,1-.952,2.091Z" transform="translate(-644.076 -452.654)" fill="#2a2522"/>
    </g>
    <path id="Path_3222" data-name="Path 3222" d="M693.335,534.238a1.246,1.246,0,0,1-.907-.386c-2.429-2.513-5.263-6.468-4.973-11.051a18.951,18.951,0,0,1,1.487-5.543l.177-.465a91.664,91.664,0,0,0,2.9-9c1.061-3.985,2.038-8.682,1.258-13.306s-3.263-8.806-5.657-12.847a1.263,1.263,0,1,1,2.172-1.288c2.4,4.041,5.109,8.622,5.975,13.713.869,5.129-.245,10.38-1.308,14.38a95.554,95.554,0,0,1-2.972,9.24l-.182.472a16.827,16.827,0,0,0-1.326,4.8c-.232,3.662,2.192,6.988,4.268,9.134a1.264,1.264,0,0,1-.909,2.142Z" transform="translate(61.81 39.823)" fill="#2a2522"/>
    <path id="Path_3223" data-name="Path 3223" d="M709.708,546.651a1.257,1.257,0,0,1-.9-.376,41.814,41.814,0,0,1-11.546-22.9,83.634,83.634,0,0,1-.727-9.109c-.222-5.17-.432-10.056-2.2-14.625a45.923,45.923,0,0,0-4.766-8.453l-14.453-21.9a1.262,1.262,0,1,1,2.106-1.392l14.45,21.9a47.443,47.443,0,0,1,5.016,8.932c1.922,4.958,2.149,10.279,2.371,15.428a81.67,81.67,0,0,0,.7,8.834A39.256,39.256,0,0,0,710.607,544.5a1.264,1.264,0,0,1-.9,2.152Z" transform="translate(42.702 20.9)" fill="#2a2522"/>
    <path id="Path_3224" data-name="Path 3224" d="M701.99,525.145a1.264,1.264,0,0,1-1.086-.616c-7.24-12.122-14.728-24.658-20.183-38.015l-.467-1.152a41.56,41.56,0,0,0-3.528-7.324,42.311,42.311,0,0,0-4.707-5.551c-2.412-2.528-4.9-5.142-6.4-8.458a1.264,1.264,0,0,1,2.3-1.041c1.321,2.927,3.556,5.271,5.92,7.758a32.746,32.746,0,0,1,8.751,13.668l.465,1.141c5.379,13.183,12.822,25.633,20.014,37.677a1.263,1.263,0,0,1-1.083,1.912Z" transform="translate(28.365 13.149)" fill="#2a2522"/>
    <path id="Path_3225" data-name="Path 3225" d="M705.515,502.981a1.273,1.273,0,0,1-1.015-.51c-3.361-4.546-8.932-7.079-13.935-8.955q-1.333-.5-2.677-.98c-4.644-1.682-9.45-3.419-13.506-6.478a50.486,50.486,0,0,1-6.728-6.506c-2.806-3.066-5.45-5.96-8.9-7.778a1.262,1.262,0,0,1,1.174-2.235c3.844,2.023,6.766,5.22,9.589,8.311a49.24,49.24,0,0,0,6.384,6.192c3.755,2.828,8.377,4.5,12.847,6.119.9.326,1.808.651,2.707.99,5.349,2.005,11.321,4.74,15.077,9.814a1.265,1.265,0,0,1-.263,1.768A1.289,1.289,0,0,1,705.515,502.981Z" transform="translate(17.026 24.052)" fill="#2a2522"/>
    <path id="Path_3226" data-name="Path 3226" d="M713.591,515.326a1.256,1.256,0,0,1-1.015-.515c-6.1-8.273-12.827-13.64-19.989-15.948-1.631-.523-3.364-.912-5.041-1.29a41.451,41.451,0,0,1-7.589-2.227c-6.647-2.894-11.218-8.791-15.249-13.991a1.264,1.264,0,1,1,2-1.548c3.846,4.962,8.2,10.584,14.261,13.226a39.2,39.2,0,0,0,7.134,2.078c1.733.389,3.52.79,5.258,1.351,7.68,2.472,14.827,8.142,21.246,16.852a1.263,1.263,0,0,1-1.015,2.013Z" transform="translate(26.742 39.186)" fill="#2a2522"/>
    <path id="Path_3227" data-name="Path 3227" d="M715.205,518.954a1.261,1.261,0,0,1-.74-.24,40.454,40.454,0,0,1-5.132-4.685c-.581-.594-1.159-1.187-1.753-1.768-5.617-5.49-12.021-9.129-18.521-10.513l-1.157-.23a22.541,22.541,0,0,1-3.72-.947c-3.321-1.253-5.791-3.851-7.968-6.144l-5.177-5.45a1.261,1.261,0,1,1,1.828-1.737l5.177,5.447c1.993,2.1,4.25,4.473,7.031,5.521a20.375,20.375,0,0,0,3.308.831l1.2.24c6.968,1.485,13.8,5.351,19.764,11.18.606.591,1.2,1.2,1.793,1.806a37.548,37.548,0,0,0,4.8,4.4,1.263,1.263,0,0,1-.74,2.286Z" transform="translate(36.267 50.672)" fill="#2a2522"/>
  </g>
</svg>
