<svg id="Group_1060" data-name="Group 1060" xmlns="http://www.w3.org/2000/svg" width="35.017" height="35.017" viewBox="0 0 35.017 35.017">
  <path id="Rectangle_654" data-name="Rectangle 654" d="M17.508,0h0A17.508,17.508,0,0,1,35.017,17.508v0A17.508,17.508,0,0,1,17.508,35.017h0A17.508,17.508,0,0,1,0,17.509v0A17.508,17.508,0,0,1,17.508,0Z" transform="translate(0 0)" fill="#222221"/>
  <path id="Path_86" data-name="Path 86" d="M-131.929,118.644h4.262V107.971h2.973l.316-3.573h-3.29v-2.035c0-.843.169-1.176.983-1.176h2.306V97.478h-2.951c-3.171,0-4.6,1.4-4.6,4.07V104.4h-2.216v3.618h2.216Z" transform="translate(146.769 -90.553)" fill="#fff"/>
</svg>
