<svg xmlns="http://www.w3.org/2000/svg" width="36.503" height="23.616" viewBox="0 0 36.503 23.616">
  <g id="Group_1071" data-name="Group 1071" transform="translate(-966.057 -951.736)">
    <g id="Icon_ionic-ios-arrow-down" data-name="Icon ionic-ios-arrow-down" transform="translate(989.057 975.353) rotate(-90)">
      <path id="Icon_ionic-ios-arrow-down-2" data-name="Icon ionic-ios-arrow-down" d="M18,20.679l8.93-8.937a1.681,1.681,0,0,1,2.384,0,1.7,1.7,0,0,1,0,2.391L19.2,24.258a1.685,1.685,0,0,1-2.327.049L6.68,14.14a1.688,1.688,0,0,1,2.384-2.391Z" transform="translate(-6.188 -11.246)" fill="#fff"/>
    </g>
    <g id="Icon_ionic-ios-arrow-down-3" data-name="Icon ionic-ios-arrow-down" transform="translate(979.56 951.736) rotate(90)">
      <path id="Icon_ionic-ios-arrow-down-4" data-name="Icon ionic-ios-arrow-down" d="M18,20.679l8.93-8.937a1.681,1.681,0,0,1,2.384,0,1.7,1.7,0,0,1,0,2.391L19.2,24.258a1.685,1.685,0,0,1-2.327.049L6.68,14.14a1.688,1.688,0,0,1,2.384-2.391Z" transform="translate(-6.188 -11.246)" fill="#fff"/>
    </g>
  </g>
</svg>
