<svg xmlns="http://www.w3.org/2000/svg" width="117.645" height="101.984" viewBox="0 0 117.645 101.984">
  <g id="Group_1334" data-name="Group 1334" transform="translate(-265.805 -378.043) rotate(-31)">
    <g id="Group_1333" data-name="Group 1333">
      <path id="Path_2565" data-name="Path 2565" d="M104.418,525.391c-2.594-2.419-5.458-4.584-8.232-6.768-3.027-2.386-6.2-4.878-9.792-6.348a.533.533,0,0,0-.257-.7c-5.146-2.144-10.523-5.093-16.222-5.194a.338.338,0,0,0-.068.673,83.372,83.372,0,0,1,14.672,4.912c-8.879,2.8-18.333,7.329-24.746,14.1-8.122,8.567-6.383,20.587-5.433,31.351-4.855-1.488-10.078-1.217-14.878-2.881-7.077-2.455-8.173-11.112-7.526-17.59.758-7.58,4.251-15.477,10.249-20.266,5.1-4.074,11.65-5.753,16.8-9.713a.188.188,0,0,0-.193-.316c-6.118,3.078-12.946,5.744-18.238,10.186-5.934,4.966-8.91,13.346-9.684,20.851-.5,4.818.235,10.549,3.369,14.391a6.063,6.063,0,0,1-6.456-1.943.561.561,0,0,0-.869.021c-1.7,1.8-5.339,2.954-5.9-.492a.5.5,0,0,0-.574-.413c-4.812,1.094-6.306-5.179-1.73-6.761a.456.456,0,0,0,.168-.7,3.175,3.175,0,0,1,.569-5.146,53.263,53.263,0,0,1,9.958-1.98c.5-.05.445-.794-.021-.854-3.81-.5-7.792.976-11.375,2.124a63.646,63.646,0,0,1-6.949,1.926c-.98.2-3.464.888-3.917-.636a7.992,7.992,0,0,1-.073-4.315c7.847,4.227,16.388-4.384,24.317-4.645.566-.014.536-1.009-.029-1-7.694.106-16.591,9.054-24.044,4.726a24.194,24.194,0,0,1,4.272-2.773.424.424,0,0,0,.463.264c5.262-.651,9.637-4.265,14.985-4.65a.092.092,0,0,0,.021-.174c-1.914-.591-3.926.122-5.754.733-2.693.907-5.219,2.184-7.955,2.894a28.094,28.094,0,0,0,4.556-2.871c3.759-3.054,6.524-7.122,10.287-10.188,7.861-6.391,17.652-8.225,27.512-7.492a.225.225,0,0,0,.043-.447c-9.059-1.875-18.7.669-26.275,5.8-4.272,2.889-7.286,7-10.977,10.532a26.982,26.982,0,0,1-6.452,4.484,22.7,22.7,0,0,0-5.8,3.586.474.474,0,0,0,.022.736c.064.047.132.081.2.122-1.1,1.987-.557,4.36.145,6.467a.529.529,0,0,0,.437.318,32.766,32.766,0,0,0,9.838-1.915c.334-.1.656-.205.981-.3a3.852,3.852,0,0,0-.06,4.76c-3.592,1.6-4.089,6.611-.051,8.313.458.194,2.32.076,2.406.368a3.055,3.055,0,0,0,1.652,2.115,5.457,5.457,0,0,0,5.527-1.416c1.979,1.937,5.2,3.261,7.694,1.7a11.276,11.276,0,0,0,2.111,1.66c4.945,2.98,11.666,2.373,17.116,3.9a.536.536,0,0,0,.608-.226.248.248,0,0,0,.141-.217.577.577,0,0,0,0-.093c2.086,1.653,4.376,2.318,6.7,1.056a8.07,8.07,0,0,0,9.984,1.922c3.177,4.491,7.385,1.627,12.052,2.048,3.673.338,6.537.6,7.043-3.491a5.021,5.021,0,0,0,5.7-4.061c5.476.5,12.014-6.978,8.28-11.983-.376-.507-1.276.03-.946.585,2.693,4.579-2.787,11.11-7.754,10.08a.622.622,0,0,0-.68.555c-.467,2.739-2.445,4-5.116,3.418a.649.649,0,0,0-.715.585c-.116,2.023-.651,3.4-2.834,3.336-1.268-.036-2.518-.341-3.785-.4-4.106-.17-7.728,2.575-10.575-1.888a.62.62,0,0,0-.865-.09,6.907,6.907,0,0,1-9.209-1.726.584.584,0,0,0-.805-.088c-2.264,1.584-4.243.537-6.349-.6a.829.829,0,0,0-.111-.032c.128-5.029-.677-10.047-.514-15.088a23.688,23.688,0,0,1,6.135-15.414c6.516-7.234,16.444-10.814,25.311-14.144,5.087,3.831,10.237,7.462,15.177,11.51a27.4,27.4,0,0,1,5.254,5.192c1.734,2.472,1.383,5.267.7,8.03-.154.621.724,1.019.96.374C109.83,532.715,108.075,528.82,104.418,525.391Z" fill="#ac9788"/>
      <path id="Path_2566" data-name="Path 2566" d="M104.226,530.176a83.959,83.959,0,0,1-7.681,5.581c-3.57-2.038-6.931-4.551-10.609-6.372-.141-.064-.235.14-.128.228a62.481,62.481,0,0,0,9.77,6.813c-.583.4-1.169.811-1.743,1.236-1.755,1.29-3.395,2.733-5.133,4.033-2.372,1.778-4.659,1.275-7.249.267C73.34,538.8,67.06,531.056,57.842,530.925a.206.206,0,0,0-.047.408c5.292,1.008,9.6,3.423,14.047,6.4,3.8,2.55,7.7,5.237,12.2,6.32,3.726.893,6.645-2.513,9.27-4.54,3.609-2.791,9-4.82,11.457-8.812C104.988,530.351,104.573,529.884,104.226,530.176Z" fill="#ac9788"/>
      <path id="Path_2567" data-name="Path 2567" d="M107.467,540.449c-4.817.425-8.657,5.262-12.707,8.7a34.984,34.984,0,0,0-.094-6.416.213.213,0,0,0-.42.013c-.3,2.406-.321,4.85-.552,7.265a15.393,15.393,0,0,1-2.633,1.672c-.15-2.24-.047-4.465-.017-6.71a.147.147,0,0,0-.292-.03,26.394,26.394,0,0,0-.642,7.14,7.737,7.737,0,0,1-2.119.464,13.835,13.835,0,0,0-.719-3.71c-.137-.456-.831-.377-.749.125a28.222,28.222,0,0,1,.415,3.577,8.639,8.639,0,0,1-3.742-1.307C74.449,545.9,66.863,536.3,55.714,536.473a.339.339,0,0,0-.077.673,38.276,38.276,0,0,1,16.4,7.043c4.225,3,8.177,7.247,13.04,9.184a6.033,6.033,0,0,0,2.261.413.52.52,0,0,0,.3-.009c2.47-.12,4.846-1.642,6.816-3.173a.4.4,0,0,0,.077-.06c.239-.189.483-.381.719-.57,4.012-3.274,7.415-7.268,12.287-9.3C107.66,540.616,107.591,540.44,107.467,540.449Z" fill="#ac9788"/>
      <path id="Path_2568" data-name="Path 2568" d="M27.059,544.828c-1.177-.4-2.157-.656-2.821-1.819-.7-1.219-.171-2.421.355-3.573.082-.168-.132-.295-.269-.2-2.788,2.075-.561,6.675,2.633,6.542C27.449,545.756,27.5,544.978,27.059,544.828Z" fill="#ac9788"/>
      <path id="Path_2569" data-name="Path 2569" d="M64.516,552.017c-.025-.551-.74-.465-.941-.1-.536.995-.707,1.755-1.875,2.191a7,7,0,0,1-3.006.086c-.146-.009-.24.187-.111.273C60.582,555.8,64.641,554.973,64.516,552.017Z" fill="#ac9788"/>
      <path id="Path_2570" data-name="Path 2570" d="M74.963,554.156c-.471.071-.685.374-1.04.675a2.691,2.691,0,0,1-1.366.587c-1.254.189-1.987-.972-2.329-2-.082-.255-.437-.108-.428.129a2.893,2.893,0,0,0,2.192,2.869c1.091.19,3.421-.434,3.45-1.81A.421.421,0,0,0,74.963,554.156Z" fill="#ac9788"/>
      <path id="Path_2571" data-name="Path 2571" d="M90.492,537.808a35.879,35.879,0,0,1-6.855-2.386c-2.423-1.247-4.684-2.771-7.15-3.93-.1-.051-.188.1-.094.17,3.986,2.7,8.8,7,13.9,6.974C90.731,538.636,91,537.953,90.492,537.808Z" fill="#ac9788"/>
      <path id="Path_2572" data-name="Path 2572" d="M93.484,525.21a19.7,19.7,0,0,0-7.1-4.8.161.161,0,0,0-.154.277q1.881,1.2,3.631,2.569a19.623,19.623,0,0,0,3.253,2.453C93.4,525.857,93.689,525.444,93.484,525.21Z" fill="#ac9788"/>
      <path id="Path_2573" data-name="Path 2573" d="M85.919,555.839a14.1,14.1,0,0,1-1.387,1.03c-.672.3-1.311-.14-1.862-.462a.3.3,0,0,0-.412.425,2.506,2.506,0,0,0,4.286-.4C86.7,556.086,86.283,555.626,85.919,555.839Z" fill="#ac9788"/>
      <path id="Path_2574" data-name="Path 2574" d="M64.671,545.524a12.329,12.329,0,0,1-3.412.2c-1.332-.169-2.09-1-3.092-1.769a.363.363,0,0,0-.539.438c1.1,2.615,5.022,2.574,7.167,1.553A.225.225,0,0,0,64.671,545.524Z" fill="#ac9788"/>
    </g>
  </g>
</svg>
