<svg xmlns="http://www.w3.org/2000/svg" width="143" height="518.635" viewBox="0 0 143 518.635">
  <g id="Group_1323" data-name="Group 1323" transform="translate(-945.614 -529.84)" opacity="0.1">
    <path id="Path_2485" data-name="Path 2485" d="M948.03,587.714c25.1-6.869,56.7-13.723,69.253-13.723,25.072,0,39.794,13.391,39.794,38.125v1.351c-.328,30.437-24.233,52.678-72.248,65.557a65.237,65.237,0,0,0-7.524-10.2c42.819-10.2,67.062-30.268,67.062-55.688,0-16.063-7.683-27.606-27.59-27.606-13.375,0-39.973,6.03-60.536,13.222.159,1.341-1.51,3.015-3.174,3.839Zm23.424-57.874c22.917,2.011,49.34,6.865,67.226,13.053l-3.506,11.7c-17.727-6.02-44.821-11.533-66.566-13.375Z" transform="translate(9.951 0)" fill="#b58156"/>
    <path id="Path_2486" data-name="Path 2486" d="M946.527,590.19c10.366.67,24.264.67,35.632.67,7.525,0,16.058-.169,23.076-.327-.164-8.037-.322-17.384-.322-23.25l16.882.84c-.159,2.012-1.669,3.01-4.515,3.506-.179,2.682,0,15.541,0,18.4,19.574-1.008,38.97-2.672,55.535-6.516l1.5,11.021c-16.391,3.7-35.8,5.37-57.04,6.363.179,10.033.328,20.4.676,30.78,16.211-1.014,33.615-3.179,47.16-6.526l1.336,10.867c-14.051,3-31.619,5.016-48.333,5.851l1.336,27.928q23.066,7.525,49.172,26.1l-7.351,10.207c-15.065-11.871-29.28-19.912-41.488-24.6,0,2.682.179,5.687.179,7.858-.179,15.909-9.71,25.093-29.945,25.093-21.243,0-36.794-8.7-36.794-24.4,0-16.073,18.218-24.929,36.958-24.929a73.953,73.953,0,0,1,17.563,2c-.169-7.2-.5-15.884-.661-24.923-5.354.194-11.364.348-16.237.348-28.583,0-36.63-4.515-36.63-14.21,0-6.368,4.858-11.543,15.566-18.392l8.021,5.175c-7.515,4.177-11.533,7.858-11.533,11.2,0,5.027,7.853,6.04,29.1,6.04,3.69,0,7.52,0,11.21-.184l-1.019-30.944c-7.191.338-15.541.338-23.065.338-10.708,0-25.917,0-35.97-.338Zm61.892,87.143a70.358,70.358,0,0,0-18.735-2.682c-12.7,0-25.584,5.19-25.584,15.219,0,9.869,11.707,14.717,26.25,14.717,13.222,0,18.233-5.846,18.233-17.552Z" transform="translate(3.76 154.222)" fill="#b58156"/>
    <path id="Path_2487" data-name="Path 2487" d="M965.342,610.4c-.333,1.5-2.16,2.5-4.51,2.672a274.506,274.506,0,0,0-3.179,41.637c0,6.189.328,12.219.676,17.558,2.012,28.456,13.539,45.681,26.423,45.481,6.675,0,15.387-17.025,21.407-35.766a59.49,59.49,0,0,0,9.705,7.192c-7.7,22.574-17.4,40.971-31.281,41.3-21.243.333-35.96-25.426-38.3-57.526-.5-6.358-.67-13.375-.67-20.906a398.919,398.919,0,0,1,2.513-45Zm110.885,77.776c-4.679-29.275-19.559-50.344-42.133-62.89l7.351-9.035c24.412,13.048,42.317,37.132,47.17,68.065Z" transform="translate(0 317.996)" fill="#b58156"/>
  </g>
</svg>
