<svg xmlns="http://www.w3.org/2000/svg" width="160.411" height="141.436" viewBox="0 0 160.411 141.436">
  <g id="Group_616" data-name="Group 616" transform="matrix(0.819, 0.574, -0.574, 0.819, 197.699, -810.421)">
    <path id="Path_1332" data-name="Path 1332" d="M366.061,766.685c-4.284-.394-7.292,1.677-10.813,3.645a6.983,6.983,0,0,1-4.458,1.039c-.111-.014-.048-.036.028-.028,2.149.236,3.743-1.188,5.409-2.228a18.791,18.791,0,0,1,4.354-2.073,12.441,12.441,0,0,1,5.569-.441C366.5,766.65,366.3,766.707,366.061,766.685Z" transform="translate(56.495 34.765)" fill="#fff"/>
    <path id="Path_1333" data-name="Path 1333" d="M366.484,770.392a35.828,35.828,0,0,0-9.687,2.329c-.046.019-.16-.03-.173-.024a29.817,29.817,0,0,1,8.022-2.221,12.05,12.05,0,0,0,8.319-3.356c.168-.124.823.12.83.115A13.409,13.409,0,0,1,366.484,770.392Z" transform="translate(103.718 38.101)" fill="#fff"/>
    <path id="Path_1334" data-name="Path 1334" d="M351.323,767.966c-2.477.494-5.014-.328-7.536.125-.037.007-.2-.025-.172-.033a14.112,14.112,0,0,1,4.335-.281,9.057,9.057,0,0,0,4.9-.778,27.853,27.853,0,0,0,3.731-2.45c.127-.091.694.086.685.095A12.627,12.627,0,0,1,351.323,767.966Z" transform="translate(27.851 27.041)" fill="#fff"/>
    <path id="Path_1335" data-name="Path 1335" d="M474.956,765.9c-8.909-.386-16.452-2.221-24.4-3.223-6.725-.846-13.786-1.511-20.956-2.079-7.222-.572-14.636-1.144-22.067-1.515-2-.1-4.958-.319-6.316.172-.008,0,.509.028.593.017,3.262-.447,7.551.042,10.889.267q4.96.333,9.891.694c6.48.482,12.9,1.029,19.113,1.7,6.512.707,12.476,1.583,18.391,2.556a107.005,107.005,0,0,0,13.33,1.473c.1,0,.293.008.517.009-.7.042-1.4.087-2.116.121-18.063.849-35.645-1.259-53.371-1.795-6.577-.2-13.057-.178-19.6.084-6.22.248-11.867.538-18.215.365a128.042,128.042,0,0,1-17.193-1.563,218.141,218.141,0,0,1-23.433-5.405,211.225,211.225,0,0,0,32.382,3.106,105.59,105.59,0,0,0,22.511-1.72c5.242-1.038,22.924-5.68,28.924-3.367a22.322,22.322,0,0,0,3.018.071c-.481-.486.176-1.1,2.3-1.306a17.722,17.722,0,0,1,6.525.768c2.208.644,3.888,1.816,7.222,2.178,2.729.3,5.951.09,8.7.4a31.286,31.286,0,0,1,9.586,2.584c3.595,1.615,5.875,3.589,12.236,4.7.5.086,2.761.353,4.789.478-1.022.085-2.06.163-3.1.233Z" transform="translate(0)" fill="none"/>
    <path id="Path_1336" data-name="Path 1336" d="M346.369,786.529a38.963,38.963,0,0,0,6.167,5.615c2.121,1.55,4.568,2.651,5.875,4.981,1.605,2.868,2.148,5.492,5.215,7.418,3.953,2.482,8.958,2.819,13.544,2.977.034,0,1.385.119,1.327.277-1.87,4.942,3.754,8.176,7.563,10.243,2.674,1.45,5.569,3.583,8.532,4.375,4.441,1.187,7.985-1.385,11.052-3.9.227-.185,2.042-.076,2.138.238,2.252,7.187,10.822,5.654,15.741,1.9,2.9-2.222,5.4-5.99,9.495-6.036,2.791-.03,5.156,2.041,7.831,1.032,2.1-.8,3.781-2.937,5.4-4.371a55.972,55.972,0,0,1,6.782-5.2c4.854-3.142,10.275-5.156,15.456-7.721a55.655,55.655,0,0,0,12.557-8.549c.038-.033.065-.069.1-.1.488-1.622.925-3.27,1.344-4.932a51.137,51.137,0,0,1-18.67,7.513c-13.967,2.377-27.7-2.417-41.21-5.038a60.453,60.453,0,0,0-16.047-1.292c-4.7.356-9.292,1.49-13.974,1.985a39.019,39.019,0,0,1-15.531-1.3c-14.637-4.467-24.985-16.807-35.332-27.587-1.787-1.358-3.541-2.746-5.277-4.141A40.931,40.931,0,0,0,346.369,786.529Z" transform="translate(0 0)" fill="none"/>
    <path id="Path_1337" data-name="Path 1337" d="M349.5,790.688c2.934,2.458,6.647,3.941,8.328,7.441,1.423,2.971,2.6,5.15,5.767,6.806,4.059,2.124,8.983,2.593,13.6,2.8-1.08,3.135,1.253,5.705,3.773,7.56a58.358,58.358,0,0,0,11.245,6.139c5.332,2.281,10.05,1.162,14.469-1.871,3.237,6.334,13.287,5.083,18.432,1.621,2.316-1.56,4.089-3.745,6.419-5.259,2.4-1.556,3.532-.1,5.906.436,3.542.8,6.429-.767,9.017-2.984a69.326,69.326,0,0,1,16.639-11.119c5.825-2.657,11.527-5.147,16.608-8.962.367-1.059.727-2.121,1.06-3.2-.037.032-.065.067-.1.1a55.034,55.034,0,0,1-12.407,8.321c-5.118,2.5-10.474,4.457-15.27,7.515a55.225,55.225,0,0,0-6.7,5.064c-1.6,1.4-3.254,3.478-5.332,4.255-2.642.982-4.979-1.033-7.737-1-4.045.045-6.511,3.713-9.381,5.875-4.86,3.655-13.327,5.147-15.552-1.848-.1-.3-1.888-.411-2.113-.231-3.03,2.445-6.531,4.948-10.919,3.793-2.928-.77-5.787-2.846-8.43-4.258-3.763-2.012-9.32-5.16-7.472-9.97.058-.154-1.277-.266-1.311-.27-4.531-.154-9.476-.481-13.382-2.9-3.03-1.874-3.566-4.428-5.152-7.22-1.291-2.269-3.709-3.34-5.8-4.849A38.293,38.293,0,0,1,347.6,787a39.45,39.45,0,0,1-9.8-30.776c1.715,1.357,3.447,2.708,5.214,4.03,10.223,10.493,20.446,22.5,34.908,26.852a39.113,39.113,0,0,0,15.345,1.267c4.626-.481,9.163-1.585,13.806-1.932a60.6,60.6,0,0,1,15.854,1.258c13.351,2.551,26.916,7.217,40.715,4.9a50.958,50.958,0,0,0,18.446-7.313c.187-.722.394-1.438.567-2.169a59.934,59.934,0,0,1-12.19,6.626.873.873,0,0,0,0-.093c-.051-.263-1.953-.373-1.98-.177-.292,2.047-5.071-2.211-5.421-2.593a27.3,27.3,0,0,1-3.454-4.942c-1.712-3-3.026-6.2-4.942-9.094-2.734-4.136-6.474-7.563-11.772-8.147-1.532-.17-3-.077-4.283-.979-1.681-1.181-2.632-3.456-3.872-5.041a10.431,10.431,0,0,0-6.107-4.194c-2.7-.546-6.521.1-7.19,2.676a11.446,11.446,0,0,0-7.7-.578c-3.719.995-7,3.706-10.009,5.892-3.294,2.391-6.344,5.051-9.6,7.486-15.4,11.52-33.855,1.425-48.079-8.763a69.911,69.911,0,0,0-7.88-6.415,1.1,1.1,0,0,0-.526-.045c-.438-.1-1.219-.154-1.25-.016-.017.087-.027.177-.044.263a.306.306,0,0,1-.122-.006l.105.083C333.64,768.018,339.111,781.977,349.5,790.688Zm28.394-15.268a27.367,27.367,0,0,0,19.077-5.519c4.442-3.331,19.427-18.226,24.511-10.8.251.369,2.581.318,2.557.228a3.437,3.437,0,0,1,1.953-4.191c2.187-.809,4.273,1.075,5.529,2.464,1.871,2.067,3.294,5.827,6.12,6.989,2.313.953,5.044.289,7.377,1.3,3.658,1.582,6.232,5.07,8.124,8.292,3.047,5.182,4.979,11.517,10.369,15.072a17.566,17.566,0,0,0,4.059,1.534c-.866.273-1.746.523-2.629.748-.044-.006-.081-.016-.132-.022-7.55-1.239-13.942-7.127-20.677-10.339a123.823,123.823,0,0,0-17.76-6.675,186.364,186.364,0,0,0-18.7-4.861c-1.691-.321-4.2-1.023-5.353.552a1.7,1.7,0,0,0,.5.054c2.765-1.434,6.4.135,9.228.857,2.8.712,5.6,1.444,8.382,2.227a148.272,148.272,0,0,1,16.2,5.465,104.55,104.55,0,0,1,15.586,8.2,30.291,30.291,0,0,0,11.3,4.727,3.9,3.9,0,0,0,.438.029c-.594.135-1.189.279-1.793.388-15.307,2.724-30.207-4.04-45.229-5.76a62.322,62.322,0,0,0-16.612.27c-5.271.8-10.057,1.726-15.437,1.171a33.943,33.943,0,0,1-14.57-5.015c-7.72-4.634-13.653-11.128-19.859-17.344C358.685,770.742,367.658,774.782,377.895,775.421Z" transform="translate(0 0)" fill="#fff"/>
    <path id="Path_1338" data-name="Path 1338" d="M346,766.71h0a14.569,14.569,0,0,0,8.415-1.269.635.635,0,0,1,.207.029C352.225,767.024,348.74,767.248,346,766.71Z" transform="translate(30.949 26.441)" fill="#fff"/>
    <path id="Path_1339" data-name="Path 1339" d="M354.923,768.049a7.033,7.033,0,0,1-3.3.68c-.044,0-.255-.045-.113-.042a6.636,6.636,0,0,0,4.035-1.225,12.83,12.83,0,0,1,2.933-2.036.52.52,0,0,1,.159.022C357.341,766.23,356.277,767.381,354.923,768.049Z" transform="translate(45.39 28.947)" fill="#fff"/>
    <path id="Path_1340" data-name="Path 1340" d="M356.865,767.689c-.043.047-.22-.037-.234-.022a5.708,5.708,0,0,1,3.519-1.875c.032,0,.18.023.154.029A6.26,6.26,0,0,0,356.865,767.689Z" transform="translate(54.931 27.8)" fill="#fff"/>
    <path id="Path_1341" data-name="Path 1341" d="M366.05,767.578a13.237,13.237,0,0,0-9.843,3.438c-.021.019-.119-.016-.118-.017a12.545,12.545,0,0,1,9.935-3.458C366.1,767.549,366.18,767.587,366.05,767.578Z" transform="translate(63.737 34.75)" fill="#fff"/>
    <path id="Path_1342" data-name="Path 1342" d="M366.207,768.328a18.281,18.281,0,0,0-5.31,1.4c-.091.039-.316-.059-.342-.047a18.52,18.52,0,0,1,4.373-1.285c1.7-.27,3.449-.128,5.051-.85.075-.033.295.05.308.043A10.51,10.51,0,0,1,366.207,768.328Z" transform="translate(76.977 32.492)" fill="#fff"/>
    <path id="Path_1343" data-name="Path 1343" d="M366.194,769.031a.93.93,0,0,1-.354-.067,20.665,20.665,0,0,0,4.462-1.289c.076-.028.319.051.329.046A13.151,13.151,0,0,1,366.194,769.031Z" transform="translate(81.334 31.476)" fill="#fff"/>
    <path id="Path_1344" data-name="Path 1344" d="M368.042,772.024a31.861,31.861,0,0,1-4.789.788c-.051.005-.372-.046-.235-.061,1.609-.17,3.178-.474,4.765-.776C367.839,771.964,368.085,772.012,368.042,772.024Z" transform="translate(74.165 48)" fill="#fff"/>
    <path id="Path_1345" data-name="Path 1345" d="M346.75,764.361a18.8,18.8,0,0,1-8.985-6.912s.063-.011.074,0a20.411,20.411,0,0,0,9.068,6.909C346.929,764.371,346.785,764.374,346.75,764.361Z" fill="#fff"/>
    <path id="Path_1346" data-name="Path 1346" d="M363.3,763.117c-5.092-2.637-10.807.224-16.082-1.513a.186.186,0,0,1,.069,0c5.2,1.655,11.283-1.407,16.191,1.522C363.46,763.118,363.34,763.14,363.3,763.117Z" transform="translate(44.364 17.315)" fill="#fff"/>
    <path id="Path_1347" data-name="Path 1347" d="M365.127,763.883a14.233,14.233,0,0,0-11.174-3.009c-.02,0-.1-.013-.086-.016a13.528,13.528,0,0,1,11.42,3.033S365.16,763.908,365.127,763.883Z" transform="translate(59.282 16.421)" fill="#fff"/>
    <path id="Path_1348" data-name="Path 1348" d="M365.283,762.587a22.122,22.122,0,0,0-9.535-2.732c-.092,0-.261-.056-.069-.048a20.467,20.467,0,0,1,9.782,2.79C365.447,762.588,365.327,762.611,365.283,762.587Z" transform="translate(61.885 13.922)" fill="#fff"/>
    <path id="Path_1349" data-name="Path 1349" d="M367.4,765.1c-2.758-1.881-5.845-2.288-9.113-2.445-.113-.006-.323-.071-.085-.06,3.168.145,6.929.328,9.445,2.517C367.643,765.1,367.455,765.134,367.4,765.1Z" transform="translate(69.009 20.692)" fill="#fff"/>
    <path id="Path_1350" data-name="Path 1350" d="M368,764.441a6.3,6.3,0,0,0-2.765-1.406c-.114-.021.063-.023.1-.017a4.944,4.944,0,0,1,2.926,1.436A.655.655,0,0,1,368,764.441Z" transform="translate(76.175 20.592)" fill="#fff"/>
    <path id="Path_1351" data-name="Path 1351" d="M368.538,764.095c-2.65-3.042-5.435-8.49-10.513-6.636-.038.013-.135-.025-.145-.02,5.086-2.147,8.29,3.146,10.93,6.67C368.81,764.109,368.581,764.145,368.538,764.095Z" transform="translate(71.251)" fill="#fff"/>
    <path id="Path_1352" data-name="Path 1352" d="M371.207,764.208a47.572,47.572,0,0,1-3.821-4.6c.006.008.62-.109.739.038l1.991,2.439a16.643,16.643,0,0,1,1.694,2.163C371.8,764.236,371.3,764.29,371.207,764.208Z" transform="translate(84.695 14.812)" fill="#fff"/>
    <path id="Path_1353" data-name="Path 1353" d="M358.4,764.032c5.711,1.665,12.075,3.119,17.956,1.411a14.819,14.819,0,0,0,2.264-.866c.094-.363.187-.727.27-1.1-6.094,4.093-13.713,2.136-20.366.543C358.5,764.018,358.331,764.012,358.4,764.032Z" transform="translate(103.718 23.157)" fill="#fff"/>
    <path id="Path_1354" data-name="Path 1354" d="M347.64,764.281c3.06,1.452,5.9,1.089,9.178.994a29.1,29.1,0,0,1,9.387,1.254c2.824.867,5.128,1.646,8.086.861a12.461,12.461,0,0,0,4.081-1.9c.15-.516.284-1.04.41-1.567a13.784,13.784,0,0,1-5.253,2.427c-2.89.573-5.094-.47-7.808-1.283a26.634,26.634,0,0,0-8.968-1.068c-3.011.151-6.191.875-9.132-.083C347.619,763.911,347.57,764.247,347.64,764.281Z" transform="translate(103.718 25.7)" fill="#fff"/>
  </g>
</svg>
