<svg id="Group_1548" data-name="Group 1548" xmlns="http://www.w3.org/2000/svg" width="222.111" height="229.583" viewBox="0 0 222.111 229.583">
  <path id="Path_3200" data-name="Path 3200" d="M164.618,44.706A22.718,22.718,0,0,1,167,47.895a35.915,35.915,0,0,1,1.92,3.535c.584,1.218,1.121,2.466,1.641,3.716s1.026,2.5,1.546,3.733q.656,1.548,1.294,3.108t1.249,3.136q.611,1.576,1.189,3.168t1.114,3.2c.744,2.241,1.428,4.523,2.017,6.838s1.084,4.667,1.446,7.039a57.621,57.621,0,0,1,.659,7.18,47.6,47.6,0,0,1-.346,7.257,44.565,44.565,0,0,1-1.819,8.02,65.462,65.462,0,0,1-3.062,7.691c-1.175,2.514-2.478,4.98-3.83,7.408s-2.753,4.817-4.124,7.177q-2.109,3.631-4.355,7.189t-4.681,6.974q-2.434,3.416-5.085,6.66t-5.566,6.244a80.711,80.711,0,0,1-22.786,16.43,78.953,78.953,0,0,1-12.949,4.9,76.186,76.186,0,0,1-13.5,2.514,72.311,72.311,0,0,1-15-.186,82.365,82.365,0,0,1-14.572-3.057,93.233,93.233,0,0,1-13.77-5.442,100.8,100.8,0,0,1-12.612-7.35A46.122,46.122,0,0,1,31.9,154.22a57.22,57.22,0,0,1-7.224-13.351,85.053,85.053,0,0,1-4.174-14.962,134.644,134.644,0,0,1-1.941-15.614.709.709,0,0,0-.265-.533.772.772,0,0,0-1,.076.723.723,0,0,0-.188.57c.316,4.542.8,9.182,1.555,13.784a95.693,95.693,0,0,0,3.194,13.594,64.141,64.141,0,0,0,5.476,12.6,47.577,47.577,0,0,0,8.419,10.788,57.2,57.2,0,0,0,6.315,5.16,74.932,74.932,0,0,0,7.019,4.389c2.43,1.347,4.929,2.579,7.452,3.713s5.081,2.176,7.61,3.133q3.325,1.258,6.743,2.255t6.924,1.694q3.506.7,7.08,1.067a70.986,70.986,0,0,0,7.208.371,76.1,76.1,0,0,0,13.7-1.252,79.828,79.828,0,0,0,13.44-3.7A81.186,81.186,0,0,0,132,171.958a80.09,80.09,0,0,0,11.616-8.268c2.167-1.857,4.232-3.826,6.205-5.888s3.857-4.218,5.659-6.445,3.525-4.526,5.178-6.876,3.238-4.751,4.764-7.182c1.561-2.484,3.168-5.03,4.744-7.633s3.122-5.262,4.559-7.969,2.766-5.464,3.908-8.261a59.37,59.37,0,0,0,2.79-8.5,45.411,45.411,0,0,0,1.177-8.022,53.935,53.935,0,0,0-.149-8.021,67.793,67.793,0,0,0-1.211-7.907c-.551-2.6-1.235-5.17-2.008-7.683q-.637-2.069-1.352-4.106T176.4,65.152q-.771-2.007-1.588-3.991t-1.658-3.948c-.518-1.207-1.023-2.424-1.545-3.633s-1.059-2.407-1.643-3.577a35.725,35.725,0,0,0-1.913-3.4,23.95,23.95,0,0,0-2.355-3.1.619.619,0,0,0-.543-.225.806.806,0,0,0-.494.278.977.977,0,0,0-.245.553.774.774,0,0,0,.2.6Z" transform="translate(2.232 3.419)" fill="#f2d245"/>
  <path id="Path_3201" data-name="Path 3201" d="M165.843,47.619c1.614-2.419,3.916-2.621,6.5-1.49s5.479,3.606,8.246,6.533a92.359,92.359,0,0,1,7.554,9.283,73.754,73.754,0,0,1,4.343,6.639,34.846,34.846,0,0,1,3.041,7.8,43.661,43.661,0,0,1,1.283,8.233,61.83,61.83,0,0,1-.078,8.462c-.208,2.837-.577,5.677-1.036,8.486-.5,3.053-1.041,6.117-1.668,9.166s-1.343,6.087-2.193,9.082a87.239,87.239,0,0,1-3,8.843,67.055,67.055,0,0,1-4.087,8.443,78.8,78.8,0,0,1-5.189,7.848,91.639,91.639,0,0,1-6,7.192c-2.115,2.294-4.336,4.488-6.636,6.593s-4.674,4.118-7.1,6.053a136.409,136.409,0,0,1-13.688,9.639,117.923,117.923,0,0,1-14.608,7.65,102.075,102.075,0,0,1-15.364,5.31,90.682,90.682,0,0,1-32.033,2.4,83.519,83.519,0,0,1-15.622-3.129,73.5,73.5,0,0,1-14.483-6.122,64.54,64.54,0,0,1-22.815-21.254,66.58,66.58,0,0,1-7.01-14.14,64.145,64.145,0,0,1-3.432-15.465,60.615,60.615,0,0,1,.618-16.058.729.729,0,0,0-.579-.877.71.71,0,0,0-.517.085.718.718,0,0,0-.317.508,62.44,62.44,0,0,0-.762,15.075,65.4,65.4,0,0,0,2.733,14.621,67.935,67.935,0,0,0,14.547,25.593,65.232,65.232,0,0,0,12.737,10.827A72.919,72.919,0,0,0,64.2,186.872a82.947,82.947,0,0,0,16.428,4.09,90.453,90.453,0,0,0,17.093.82,92.337,92.337,0,0,0,17.772-2.591,104.039,104.039,0,0,0,17.08-5.841,121.16,121.16,0,0,0,16.166-8.666,141.039,141.039,0,0,0,15.033-11.046c2.56-2.15,5.052-4.4,7.44-6.759s4.678-4.829,6.826-7.413a86.318,86.318,0,0,0,6-8.1,74.693,74.693,0,0,0,4.946-8.831,80.657,80.657,0,0,0,3.586-9.024c1.031-3.1,1.906-6.29,2.647-9.506s1.348-6.458,1.845-9.683.883-6.425,1.181-9.559c.149-1.564.257-3.134.31-4.7s.053-3.138-.014-4.7-.2-3.115-.419-4.656a40.748,40.748,0,0,0-.9-4.571,34.529,34.529,0,0,0-1.584-4.674,41.9,41.9,0,0,0-2.148-4.369c-.794-1.411-1.66-2.783-2.576-4.124s-1.878-2.65-2.868-3.94c-.913-1.188-2.427-3.182-4.29-5.341a50.729,50.729,0,0,0-6.364-6.319c-2.295-1.842-4.685-3.215-6.924-3.491s-4.323.545-6.018,3.087a.645.645,0,0,0-.1.587.7.7,0,0,0,.376.387A.931.931,0,0,0,165.3,48a.87.87,0,0,0,.54-.379Z" transform="translate(0 0)" fill="#f2d245"/>
  <path id="Path_3202" data-name="Path 3202" d="M146.328,43.044a11.77,11.77,0,0,1-1.578,2.492,9.891,9.891,0,0,1-2.035,1.853,10,10,0,0,1-2.458,1.213,12.04,12.04,0,0,1-2.847.571c-.618.05-1.205.076-1.773.1s-1.118.059-1.663.12a11.042,11.042,0,0,0-1.633.3,9.072,9.072,0,0,0-1.684.631,17.756,17.756,0,0,0-1.91,1.112c-.611.4-1.205.821-1.807,1.226A21,21,0,0,1,125.09,53.8a10.477,10.477,0,0,1-2.04.841,13.28,13.28,0,0,1-2.179.418c-.731.083-1.465.123-2.2.156s-1.469.059-2.2.116a16.763,16.763,0,0,0-2.188.3,14.72,14.72,0,0,0-2.84.914,18.97,18.97,0,0,0-2.614,1.4,28.04,28.04,0,0,0-2.43,1.749c-.784.626-1.546,1.286-2.291,1.958-1.128,1.018-2.213,2.022-3.3,2.981S98.644,66.5,97.52,67.343a27.477,27.477,0,0,1-3.541,2.277,21.67,21.67,0,0,1-4.045,1.665c-.535.16-1.071.317-1.6.488s-1.058.354-1.572.564a12.088,12.088,0,0,0-1.5.731,8.973,8.973,0,0,0-1.385.986,14.4,14.4,0,0,0-1.669,1.754c-.494.6-.949,1.2-1.434,1.768a10.107,10.107,0,0,1-1.612,1.558,7.233,7.233,0,0,1-2.2,1.123c-.554.175-1.037.291-1.481.39s-.849.18-1.248.286a6.942,6.942,0,0,0-1.21.435,8.083,8.083,0,0,0-1.368.835,15.891,15.891,0,0,1-2.407,1.5,10.711,10.711,0,0,1-2.28.831,12.715,12.715,0,0,1-2.387.32c-.839.039-1.736.02-2.729-.032a18.765,18.765,0,0,0-3.344.112,18.109,18.109,0,0,0-3.07.663,23.711,23.711,0,0,0-2.966,1.147c-.99.455-1.99.98-3.03,1.563-.739.414-1.464.81-2.188,1.174s-1.445.7-2.179.991a18.62,18.62,0,0,1-2.244.742,15.708,15.708,0,0,1-2.385.427c-.592.059-1.186.092-1.78.12s-1.187.049-1.78.084-1.183.085-1.771.169a12.305,12.305,0,0,0-1.756.373,13.285,13.285,0,0,0-2.025.79,20.321,20.321,0,0,0-1.909,1.063c-.621.387-1.23.8-1.834,1.223s-1.2.851-1.8,1.27q-1.213.847-2.457,1.629t-2.521,1.492q-1.276.71-2.586,1.345t-2.652,1.188c-1.321.545-2.664,1.018-4,1.49s-2.666.941-3.962,1.48a25.915,25.915,0,0,0-3.757,1.89,17.326,17.326,0,0,0-3.388,2.721.727.727,0,0,0-.221.558.751.751,0,0,0,.229.482.741.741,0,0,0,.485.216.714.714,0,0,0,.546-.239,16.8,16.8,0,0,1,3.763-2.9A29.8,29.8,0,0,1,9.542,106.1c1.477-.565,2.989-1.066,4.482-1.591a45.527,45.527,0,0,0,4.377-1.742,31.841,31.841,0,0,0,3.823-2.2c1.258-.826,2.5-1.715,3.759-2.576s2.519-1.7,3.81-2.419a19.537,19.537,0,0,1,3.98-1.73,12.844,12.844,0,0,1,2.232-.428c.75-.082,1.505-.117,2.261-.146s1.514-.049,2.269-.1a16.2,16.2,0,0,0,2.255-.3,14.691,14.691,0,0,0,1.677-.471c.549-.189,1.09-.406,1.624-.644s1.061-.5,1.584-.766,1.041-.552,1.558-.837c.695-.383,1.39-.784,2.091-1.176s1.409-.775,2.129-1.124a18.931,18.931,0,0,1,2.2-.914,12.184,12.184,0,0,1,2.307-.547,13.949,13.949,0,0,1,2-.1c.667.009,1.332.051,2,.1s1.333.1,2,.123a16.917,16.917,0,0,0,2.009-.028,10.432,10.432,0,0,0,1.408-.207,9.3,9.3,0,0,0,1.318-.393,9.627,9.627,0,0,0,1.257-.588,11.5,11.5,0,0,0,1.224-.792c.381-.28.747-.555,1.112-.818s.729-.513,1.1-.74a9.2,9.2,0,0,1,1.175-.61,7.485,7.485,0,0,1,1.324-.425c.285-.063.566-.1.843-.138s.552-.062.824-.1a6.793,6.793,0,0,0,.816-.155,4.171,4.171,0,0,0,.817-.305A5.758,5.758,0,0,0,80.3,80.47a8.831,8.831,0,0,0,.946-.931c.3-.334.575-.685.849-1.041s.541-.715.813-1.063a11.979,11.979,0,0,1,1.864-1.917A11.683,11.683,0,0,1,86.8,74.2a18.436,18.436,0,0,1,2.234-.956c.784-.283,1.608-.543,2.48-.818A19.576,19.576,0,0,0,94.689,71.1a24.759,24.759,0,0,0,2.886-1.78c.925-.656,1.817-1.369,2.693-2.118s1.737-1.535,2.6-2.337c1.244-1.16,2.434-2.223,3.626-3.17a27.02,27.02,0,0,1,3.639-2.478,19.011,19.011,0,0,1,3.991-1.679,20.721,20.721,0,0,1,4.686-.772c.6-.033,1.192-.071,1.776-.128s1.162-.132,1.733-.238a13.755,13.755,0,0,0,1.7-.423,11.552,11.552,0,0,0,1.675-.683,25.333,25.333,0,0,0,2.354-1.381c.746-.482,1.468-.97,2.209-1.413a14.009,14.009,0,0,1,2.322-1.147,9.5,9.5,0,0,1,2.695-.582,29.215,29.215,0,0,0,3.881-.489,14.2,14.2,0,0,0,3.415-1.125,10.277,10.277,0,0,0,2.883-2.085,12.465,12.465,0,0,0,2.283-3.368.747.747,0,0,0,.03-.628.831.831,0,0,0-.965-.455.756.756,0,0,0-.47.424Z" transform="translate(19.68 2.884)" fill="#f2d245"/>
  <path id="Path_3203" data-name="Path 3203" d="M28.709,1.6q-.581,5.541-1,11.1T27,23.847q-.292,5.588-.477,11.191t-.3,11.235q-.029,1.363-.054,2.727t-.048,2.729q-.023,1.366-.044,2.732t-.04,2.736c-.012.882-.045,1.778-.08,2.68s-.072,1.812-.093,2.72-.026,1.816,0,2.716.094,1.792.211,2.668a8.432,8.432,0,0,0,1.178,3.405A7.806,7.806,0,0,0,29.5,73.694a11.6,11.6,0,0,0,3,1.424,20.436,20.436,0,0,0,3.427.757,30.542,30.542,0,0,0,3.941.29,31.753,31.753,0,0,0,3.962-.213,32.745,32.745,0,0,0,3.926-.7,33.294,33.294,0,0,0,3.834-1.179c1.146-.43,2.37-.947,3.6-1.549A34.958,34.958,0,0,0,58.86,70.46,24.585,24.585,0,0,0,62.191,67.9a15.592,15.592,0,0,0,2.59-3.044,6.428,6.428,0,0,0,.926-3.445,13.763,13.763,0,0,0-.612-3.884,31.386,31.386,0,0,0-1.416-3.808c-.525-1.2-1.062-2.3-1.49-3.224q-1.123-2.419-2.331-4.789t-2.476-4.692q-1.269-2.322-2.591-4.605t-2.676-4.529q-1.55-2.571-3.143-5.1t-3.206-5.034q-1.613-2.5-3.242-4.981T39.27,11.818c-.525-.8-1.038-1.649-1.553-2.521s-1.032-1.763-1.565-2.639-1.083-1.736-1.663-2.547a19.653,19.653,0,0,0-1.845-2.247,3.818,3.818,0,0,0-.927-.716,2.429,2.429,0,0,0-1-.3,1.882,1.882,0,0,0-.989.209,2.607,2.607,0,0,0-.9.812.835.835,0,0,0-.163.621A.883.883,0,0,0,28.933,3a.7.7,0,0,0,.49.2.651.651,0,0,0,.509-.3c.256-.354.718-.173,1.275.307a14.2,14.2,0,0,1,1.843,2.11c.635.849,1.253,1.764,1.741,2.512s.847,1.328.963,1.5L37,11.233l1.249,1.9,1.25,1.9,1.25,1.9q1.122,1.711,2.24,3.43t2.229,3.451q1.111,1.733,2.208,3.479t2.178,3.512q1.117,1.824,2.211,3.669t2.16,3.715q1.066,1.871,2.1,3.767T58.1,45.783c.569,1.1,1.238,2.314,1.919,3.591s1.375,2.622,1.99,4a27.688,27.688,0,0,1,1.522,4.168,13.772,13.772,0,0,1,.513,4.1A6.52,6.52,0,0,1,62.5,65.354a16.174,16.174,0,0,1-3.479,3.138,32.758,32.758,0,0,1-4.193,2.432c-1.381.679-2.68,1.221-3.7,1.6a32.125,32.125,0,0,1-3.637,1.129,31.276,31.276,0,0,1-3.726.683,30.042,30.042,0,0,1-3.761.218,28.584,28.584,0,0,1-3.742-.264c-.682-.094-1.406-.207-2.133-.364a14.505,14.505,0,0,1-2.15-.625,8.452,8.452,0,0,1-1.938-1.028,5.76,5.76,0,0,1-1.5-1.573,6.725,6.725,0,0,1-.851-2.126,12.976,12.976,0,0,1-.288-2.409c-.03-.826-.009-1.663.023-2.477s.072-1.6.081-2.33q.03-2.284.062-4.565t.069-4.559q.037-2.277.081-4.552t.1-4.546q.12-5.192.3-10.371t.466-10.334q.281-5.155.674-10.295t.928-10.255a.8.8,0,0,0-.174-.605A.856.856,0,0,0,29.53.992a.721.721,0,0,0-.53.088.672.672,0,0,0-.291.521Z" transform="translate(64.758 101.755)" fill="#f2d245"/>
  <path id="Path_3204" data-name="Path 3204" d="M45.692,14.456c-.073,2.773-.316,5.542-.664,8.31s-.8,5.536-1.295,8.3S42.7,36.6,42.2,39.362s-1,5.533-1.391,8.3q-.282,1.973-.538,3.95t-.486,3.959q-.231,1.982-.436,3.968t-.386,3.977q-.089.983-.172,1.966t-.161,1.968q-.077.985-.148,1.97t-.136,1.973c-.023.348-.038.7-.053,1.056s-.029.713-.049,1.07-.046.714-.085,1.068-.09.7-.16,1.048a3.847,3.847,0,0,1-.7,1.633,2.681,2.681,0,0,1-1.153.848,4.373,4.373,0,0,1-1.471.268,10.456,10.456,0,0,1-1.655-.106,29.814,29.814,0,0,1-7.022-1.835,31.587,31.587,0,0,1-6.4-3.431,32.1,32.1,0,0,1-5.471-4.8,31.236,31.236,0,0,1-4.25-5.953,13.529,13.529,0,0,1-1.682-8.436,20.049,20.049,0,0,1,3.023-7.851,54.946,54.946,0,0,1,5.511-7.219c2.007-2.294,4.06-4.47,5.786-6.513q1.49-1.762,2.966-3.545t2.967-3.557q1.49-1.775,3.006-3.527t3.082-3.453q.775-.842,1.578-1.66t1.633-1.606q.831-.788,1.689-1.543t1.747-1.472c.2-.161.519-.436.9-.753s.826-.678,1.277-1.012a10.244,10.244,0,0,1,1.318-.853A1.755,1.755,0,0,1,45.7,8.983a.915.915,0,0,1,.54.418,3.265,3.265,0,0,1,.381.808,6.324,6.324,0,0,1,.224.9,4.125,4.125,0,0,1,.071.69,4.954,4.954,0,0,1-.11.944,8.45,8.45,0,0,1-.261.949c-.1.314-.222.623-.342.924s-.241.592-.352.87a.817.817,0,0,0,0,.636.847.847,0,0,0,.388.414.7.7,0,0,0,.529.06.676.676,0,0,0,.421-.425c.313-.781.6-1.559.824-2.329a10.6,10.6,0,0,0,.423-2.279,6.155,6.155,0,0,0-.235-2.19,5.728,5.728,0,0,0-1.151-2.062.5.5,0,0,0-.155-.12.669.669,0,0,0-.191-.061.853.853,0,0,0-.4.029,17.548,17.548,0,0,0-3.624,1.713,27.6,27.6,0,0,0-3.348,2.44c-1.07.9-2.1,1.868-3.077,2.854s-1.916,1.988-2.808,2.956q-1.728,1.874-3.4,3.808t-3.312,3.893q-1.642,1.959-3.27,3.927T20.2,32.663c-1.549,1.833-3.391,3.815-5.218,5.925a57.307,57.307,0,0,0-5.118,6.687A22.4,22.4,0,0,0,6.7,52.6a13.6,13.6,0,0,0,.629,7.864,27.674,27.674,0,0,0,3.693,6.585,31.986,31.986,0,0,0,5.261,5.468,34.552,34.552,0,0,0,6.355,4.14A32.935,32.935,0,0,0,29.6,79.252c.83.2,1.75.442,2.688.616a11.824,11.824,0,0,0,2.791.236,4.835,4.835,0,0,0,2.452-.74,4.341,4.341,0,0,0,1.667-2.31,10.408,10.408,0,0,0,.414-1.717c.094-.588.15-1.188.188-1.791s.057-1.207.076-1.8.04-1.186.079-1.757q.1-1.453.215-2.9t.243-2.9q.128-1.449.27-2.9t.3-2.892q.316-2.93.69-5.852t.8-5.83q.428-2.909.91-5.807T44.4,35.12c.319-1.73.643-3.457.952-5.185s.6-3.454.863-5.183.486-3.459.658-5.195.291-3.474.337-5.22a.657.657,0,0,0-.223-.548.72.72,0,0,0-.516-.148.87.87,0,0,0-.526.23.811.811,0,0,0-.251.585Z" transform="translate(39.653 93.332)" fill="#f2d245"/>
  <path id="Path_3205" data-name="Path 3205" d="M19.288,7.768A10.148,10.148,0,0,1,21.97,8.1a20.851,20.851,0,0,1,2.724.908c.9.363,1.8.769,2.672,1.162s1.718.775,2.523,1.089l9.526,3.725,4.791,1.874,4.809,1.881,4.828,1.889,4.847,1.9c1.234.483,2.69.966,4.193,1.519a34.837,34.837,0,0,1,4.477,1.947,13.275,13.275,0,0,1,3.708,2.8,7.456,7.456,0,0,1,1.873,4.092,8.97,8.97,0,0,1-.09,2.7,12.671,12.671,0,0,1-.78,2.585,21.74,21.74,0,0,1-1.222,2.456c-.454.8-.94,1.566-1.417,2.311s-.949,1.471-1.43,2.2-.965,1.461-1.45,2.189-.972,1.456-1.458,2.183-.972,1.455-1.454,2.184c-.492.744-.974,1.523-1.456,2.315s-.966,1.6-1.462,2.389-1,1.577-1.537,2.328A24.255,24.255,0,0,1,57.5,60.857,5.358,5.358,0,0,1,54.67,62.7a4.035,4.035,0,0,1-2.64-.4,9.919,9.919,0,0,1-2.4-1.77c-.757-.72-1.467-1.523-2.123-2.264q-1.543-1.74-2.968-3.572t-2.773-3.715q-1.348-1.883-2.641-3.8t-2.57-3.834L33.7,39.071l-2.838-4.257-2.828-4.243-2.819-4.229q-.681-1.022-1.365-2.039t-1.365-2.034q-.681-1.017-1.356-2.035t-1.338-2.043c-.226-.348-.768-1.159-1.379-2.182a28.456,28.456,0,0,1-1.791-3.455,7.1,7.1,0,0,1-.723-3.23c.1-.874.625-1.464,1.82-1.521a.711.711,0,0,0,.547-.273.848.848,0,0,0,.165-.548.831.831,0,0,0-.206-.529.692.692,0,0,0-.565-.217,3.32,3.32,0,0,0-2.187.823,3.291,3.291,0,0,0-.937,1.823,6.58,6.58,0,0,0,.01,2.281,9.086,9.086,0,0,0,.658,2.2,45.18,45.18,0,0,0,2.312,4.437c.852,1.449,1.773,2.87,2.723,4.274s1.933,2.795,2.907,4.177,1.942,2.763,2.863,4.146q1.426,2.141,2.85,4.289t2.857,4.305Q33.154,41.143,34.6,43.3t2.9,4.316c.847,1.254,1.706,2.537,2.59,3.821s1.793,2.569,2.739,3.823,1.93,2.482,2.963,3.648A38.948,38.948,0,0,0,49.053,62.2a9.914,9.914,0,0,0,2.416,1.621,6.144,6.144,0,0,0,2.482.6,5.144,5.144,0,0,0,2.436-.577,7.328,7.328,0,0,0,2.278-1.9c1.082-1.3,2.11-2.68,3.1-4.1s1.945-2.883,2.881-4.36,1.852-2.97,2.769-4.448,1.832-2.943,2.765-4.365c.714-1.088,1.448-2.244,2.107-3.446A22.041,22.041,0,0,0,73.946,37.5a12.018,12.018,0,0,0,.644-3.876,8.951,8.951,0,0,0-.932-3.9,9.566,9.566,0,0,0-2.179-2.847,14.931,14.931,0,0,0-2.966-2.051A31.756,31.756,0,0,0,65.17,23.3c-1.132-.451-2.259-.861-3.315-1.273L56.24,19.839l-5.59-2.182-5.565-2.173-5.54-2.163L36.71,12.215l-2.829-1.1-2.822-1.1-2.816-1.1c-.719-.281-1.445-.6-2.178-.909s-1.473-.624-2.223-.9a16.81,16.81,0,0,0-2.277-.672,10.078,10.078,0,0,0-2.34-.232.687.687,0,0,0-.545.258A.832.832,0,0,0,18.517,7a.854.854,0,0,0,.206.535.712.712,0,0,0,.566.233Z" transform="translate(88.865 89.297)" fill="#f2d245"/>
  <path id="Path_3206" data-name="Path 3206" d="M52.655,16.144A65.548,65.548,0,0,1,56.1,22.3a64.773,64.773,0,0,1,2.774,6.52,63.924,63.924,0,0,1,2.052,6.833,63.135,63.135,0,0,1,1.282,7.089c.171,1.4.357,2.972.421,4.554a18.708,18.708,0,0,1-.307,4.635,7.791,7.791,0,0,1-1.848,3.79,6.913,6.913,0,0,1-4.2,2.015,24.565,24.565,0,0,1-3.686.246,31.034,31.034,0,0,1-3.7-.254c-1.228-.155-2.447-.376-3.644-.643s-2.371-.58-3.513-.922c-1.3-.391-2.589-.829-3.863-1.294s-2.533-.955-3.791-1.451-2.51-1-3.768-1.48-2.518-.951-3.793-1.381c-1.159-.391-2.329-.741-3.5-1.066s-2.355-.623-3.538-.911-2.365-.566-3.546-.849-2.358-.57-3.529-.877c-.59-.155-1.233-.3-1.9-.461s-1.348-.325-2.021-.517A17.868,17.868,0,0,1,6.529,45.2a8.868,8.868,0,0,1-1.7-.914,3.6,3.6,0,0,1-.642-.6,5.263,5.263,0,0,1-.592-.856,4.214,4.214,0,0,1-.4-.979,2.392,2.392,0,0,1-.065-.973,1.209,1.209,0,0,1,.274-.494,5.752,5.752,0,0,1,.547-.573c.2-.191.421-.376.613-.534s.361-.29.472-.375a10.6,10.6,0,0,1,.928-.634c.322-.2.654-.382.991-.56s.677-.348,1.016-.516.675-.334,1-.5c1.13-.577,2.272-1.126,3.424-1.655S14.706,34,15.873,33.5s2.34-.986,3.514-1.471,2.351-.969,3.526-1.458q1.79-.746,3.572-1.521t3.542-1.612q1.76-.837,3.488-1.748t3.409-1.929c1.087-.657,2.276-1.482,3.531-2.337S43.03,19.68,44.381,18.9a20.462,20.462,0,0,1,4.11-1.871,9.078,9.078,0,0,1,4.082-.391.76.76,0,0,0,.613-.157.9.9,0,0,0,.3-.507.81.81,0,0,0-.073-.566.679.679,0,0,0-.511-.332,9.358,9.358,0,0,0-3.533.167,16.607,16.607,0,0,0-3.482,1.264,36.036,36.036,0,0,0-3.32,1.854c-1.067.66-2.088,1.335-3.044,1.94q-2.123,1.34-4.276,2.556t-4.343,2.327q-2.19,1.112-4.424,2.132T21.965,29.29c-.805.335-2.892,1.087-5.448,2.122a81.312,81.312,0,0,0-8.256,3.819C5.582,36.7,3.238,38.315,2.029,39.956A3.2,3.2,0,0,0,2.6,44.829a8.376,8.376,0,0,0,1.617,1.046,15.607,15.607,0,0,0,1.879.787c.651.229,1.317.43,1.968.617s1.29.361,1.885.536c.837.247,1.679.476,2.525.694s1.7.425,2.55.629,1.708.4,2.562.6,1.71.408,2.563.622c1.626.409,3.224.891,4.8,1.418s3.149,1.1,4.711,1.691,3.124,1.2,4.694,1.794,3.151,1.181,4.753,1.726a56.623,56.623,0,0,0,7.044,1.915,31.608,31.608,0,0,0,7.988.675,12.114,12.114,0,0,0,6.751-2.209,9.047,9.047,0,0,0,3.3-6.73,42.715,42.715,0,0,0-.267-9.342,56.246,56.246,0,0,0-2.094-9.291,68.829,68.829,0,0,0-3.461-8.822,73.577,73.577,0,0,0-4.373-7.946.684.684,0,0,0-.512-.334.855.855,0,0,0-.561.152.9.9,0,0,0-.36.468.724.724,0,0,0,.093.616Z" transform="translate(109.296 46.266)" fill="#f2d245"/>
  <path id="Path_3207" data-name="Path 3207" d="M50.841,16.443Q48.63,18.129,46.486,19.9t-4.229,3.6q-2.085,1.834-4.12,3.726t-4.029,3.826q-1.027,1-2.046,2t-2.03,2.017Q29.02,36.085,28.014,37.1t-2.008,2.037c-.649.659-1.293,1.351-1.94,2.054s-1.295,1.416-1.953,2.117S20.788,44.7,20.1,45.353A27.226,27.226,0,0,1,18,47.188a3.445,3.445,0,0,1-2.71.778,5.489,5.489,0,0,1-2.545-1.248,14.7,14.7,0,0,1-2.2-2.285c-.657-.825-1.229-1.659-1.686-2.339-.5-.749-1.061-1.543-1.569-2.37a13.274,13.274,0,0,1-1.27-2.564,5.981,5.981,0,0,1-.344-2.682,5.308,5.308,0,0,1,1.207-2.726,9.7,9.7,0,0,1,2.108-1.906,17.5,17.5,0,0,1,2.565-1.419c.9-.414,1.827-.779,2.734-1.128s1.8-.683,2.614-1.034l2.584-1.106,2.586-1.108,2.59-1.109,2.594-1.109c1.941-.83,3.881-1.578,5.828-2.225a55.6,55.6,0,0,1,5.885-1.617,45.473,45.473,0,0,1,6-.882,41.392,41.392,0,0,1,6.188-.021.779.779,0,0,0,.588-.2.985.985,0,0,0,.3-.514.757.757,0,0,0-.061-.539.574.574,0,0,0-.486-.278,45.323,45.323,0,0,0-5.962-.035,46.882,46.882,0,0,0-5.832.723,51.677,51.677,0,0,0-5.727,1.423,60.078,60.078,0,0,0-5.647,2.067q-1.583.668-3.162,1.343t-3.153,1.352l-3.146,1.354q-1.571.677-3.141,1.351c-.832.356-1.713.7-2.605,1.054s-1.795.732-2.67,1.155A17.558,17.558,0,0,0,7.946,28.8a10.674,10.674,0,0,0-2.112,1.937A7.858,7.858,0,0,0,4.66,32.651a6.693,6.693,0,0,0-.508,2.015,6.849,6.849,0,0,0,.131,2.056,8.169,8.169,0,0,0,.742,2.038c.421.816.876,1.642,1.365,2.46S7.4,42.846,7.961,43.625a26.111,26.111,0,0,0,1.779,2.23,19,19,0,0,0,1.991,1.933A10.2,10.2,0,0,0,13.4,48.943a5.508,5.508,0,0,0,1.719.61,4.1,4.1,0,0,0,1.78-.1,5.448,5.448,0,0,0,1.852-.966,30.575,30.575,0,0,0,2.429-2.1c.787-.749,1.553-1.537,2.308-2.34s1.5-1.621,2.242-2.426,1.482-1.6,2.229-2.357q2.809-2.845,5.659-5.653t5.788-5.527q2.938-2.719,5.979-5.319t6.234-5.031a.807.807,0,0,0,.325-.542.869.869,0,0,0-.119-.558.712.712,0,0,0-.417-.331.651.651,0,0,0-.57.138Z" transform="translate(21.796 85.482)" fill="#f2d245"/>
  <path id="Path_3208" data-name="Path 3208" d="M7.685.887Q7.494,2.317,7.4,3.752T7.311,6.621q.012,1.434.143,2.862t.4,2.844c.163.865.368,1.777.626,2.695a23.364,23.364,0,0,0,.941,2.732,15.527,15.527,0,0,0,1.324,2.522,9.942,9.942,0,0,0,1.772,2.062,7.077,7.077,0,0,0,4.727,1.681,9.877,9.877,0,0,0,4.977-1.435,9.282,9.282,0,0,0,3.563-3.733,7.06,7.06,0,0,0,.483-5.193.706.706,0,0,0-.393-.479.792.792,0,0,0-.567-.013.865.865,0,0,0-.461.359.778.778,0,0,0-.076.635,5.462,5.462,0,0,1,.146,2.373,5.973,5.973,0,0,1-.8,2.146A7.105,7.105,0,0,1,22.6,20.436a7.516,7.516,0,0,1-2,1.208,10.036,10.036,0,0,1-1.144.384,9.435,9.435,0,0,1-1.193.241,8.343,8.343,0,0,1-1.208.076,7.071,7.071,0,0,1-1.188-.112,4.652,4.652,0,0,1-1.206-.4,5.138,5.138,0,0,1-1.032-.675,6.629,6.629,0,0,1-.877-.893,9.2,9.2,0,0,1-.739-1.053,19.827,19.827,0,0,1-1.9-4.183A25.217,25.217,0,0,1,9.1,10.5a32.364,32.364,0,0,1-.257-4.679A39.543,39.543,0,0,1,9.189,1.2.8.8,0,0,0,9.031.577a.851.851,0,0,0-.491-.3A.743.743,0,0,0,8,.362a.7.7,0,0,0-.312.525Z" transform="translate(93.255 142.552)" fill="#f2d245"/>
  <path id="Path_3209" data-name="Path 3209" d="M4.789,2.413l.06.049.058.051.058.052.058.052a.259.259,0,0,0,.044.036s0,0,0-.008-.008-.008-.005,0a.4.4,0,0,0,.033.053l.037.058.037.058.035.058.034.06.054.1L5.275,3c0-.007,0-.008,0-.006l.009.023.021.051c.03.09.054.168.074.239a2,2,0,0,1,.046.2,1.859,1.859,0,0,1,.023.211c0,.076.006.161,0,.262,0,.041,0,.077,0,.109s0,.064-.006.1-.007.067-.014.106-.015.085-.025.14q-.006.035-.014.07c0,.024-.01.047-.016.07s-.012.047-.018.07l-.019.069-.016.053-.026.082c-.008.026-.015.048-.017.057s0,0,.01-.022q-.026.072-.056.143t-.063.14q-.033.069-.069.137t-.073.134L4.992,5.5l-.034.056-.034.055-.036.053c.016-.023.018-.028.012-.021l-.038.046-.053.067L4.774,5.8c-.064.077-.122.145-.179.206a2.041,2.041,0,0,1-.174.166,1.824,1.824,0,0,1-.2.143,2.76,2.76,0,0,1-.243.136c.024-.012.03-.015.024-.013l-.043.018L3.9,6.479,3.858,6.5l-.075.028-.076.025-.077.022-.078.018c.031-.006.04-.009.036-.009l-.042,0-.067.009-.04.006-.068,0-.068,0H3.165a1.131,1.131,0,0,1-.174-.018A1.622,1.622,0,0,1,2.8,6.544a1.9,1.9,0,0,1-.2-.073,1.823,1.823,0,0,1-.19-.1l-.04-.026-.052-.037-.027-.018a.307.307,0,0,0,.035.029l-.058-.048-.056-.05-.055-.052L2.105,6.12a.23.23,0,0,0-.053-.045s0,.008.006.016.013.015.013.01a.267.267,0,0,0-.032-.063L2,5.971,1.962,5.9l-.037-.068c-.012-.023-.024-.046-.035-.07a.574.574,0,0,0-.2-.227.726.726,0,0,0-.279-.112.858.858,0,0,0-.307,0,.761.761,0,0,0-.28.109A.791.791,0,0,0,.6,5.762a.77.77,0,0,0-.112.278.893.893,0,0,0-.005.3,1.034,1.034,0,0,0,.093.3,2.586,2.586,0,0,0,.765.945,2.865,2.865,0,0,0,1.064.5,3.363,3.363,0,0,0,1.2.069A3.409,3.409,0,0,0,4.759,7.8a3.7,3.7,0,0,0,.974-.742,4.51,4.51,0,0,0,.723-1.02,4.864,4.864,0,0,0,.433-1.182,4.4,4.4,0,0,0,.1-1.228,4.11,4.11,0,0,0-.1-.685,3.637,3.637,0,0,0-.22-.653,3.041,3.041,0,0,0-.344-.586,2.578,2.578,0,0,0-.473-.483.953.953,0,0,0-.267-.146A.822.822,0,0,0,5.3,1.031a.722.722,0,0,0-.285.065.769.769,0,0,0-.254.19.808.808,0,0,0-.154.265.945.945,0,0,0-.055.313.794.794,0,0,0,.057.305.592.592,0,0,0,.182.243Z" transform="translate(103.396 132.547)" fill="#f2d245"/>
  <path id="Path_3210" data-name="Path 3210" d="M4.071.594a7.828,7.828,0,0,0-.949,1.415,8.193,8.193,0,0,0-.915,3.253,7.788,7.788,0,0,0,.071,1.692,9.029,9.029,0,0,0,.179.887,6.194,6.194,0,0,0,.295.882,3.99,3.99,0,0,0,.442.791,2.644,2.644,0,0,0,.62.616,1.9,1.9,0,0,0,.86.33,2.591,2.591,0,0,0,.909-.06,4.681,4.681,0,0,0,.9-.32,8.929,8.929,0,0,0,.837-.449,8.473,8.473,0,0,0,.89-.613A9.1,9.1,0,0,0,9.019,8.3a9.894,9.894,0,0,0,.726-.812,10.78,10.78,0,0,0,.641-.891.627.627,0,0,0,.1-.291.791.791,0,0,0-.038-.3.872.872,0,0,0-.143-.27.689.689,0,0,0-.513-.269.68.68,0,0,0-.279.047.858.858,0,0,0-.249.154,1.1,1.1,0,0,0-.2.237,7.321,7.321,0,0,1-.555.751,7.649,7.649,0,0,1-.641.673,7.9,7.9,0,0,1-.713.589,8.061,8.061,0,0,1-.772.5c-.105.06-.223.127-.347.193a3.935,3.935,0,0,1-.39.183,1.938,1.938,0,0,1-.4.116A.98.98,0,0,1,4.853,8.9a.67.67,0,0,1-.3-.166,1.27,1.27,0,0,1-.227-.291,2.7,2.7,0,0,1-.169-.348c-.048-.118-.089-.234-.126-.337a6.021,6.021,0,0,1-.324-1.574,6.512,6.512,0,0,1,.577-3.164,6.1,6.1,0,0,1,.871-1.378.783.783,0,0,0,.2-.6A.824.824,0,0,0,5.1.537.731.731,0,0,0,4.606.324a.688.688,0,0,0-.535.271Z" transform="translate(65.458 123.189)" fill="#f2d245"/>
  <path id="Path_3211" data-name="Path 3211" d="M1.91,10.72a14.211,14.211,0,0,0-.174,1.56,6.985,6.985,0,0,0,.08,1.551A3.745,3.745,0,0,0,2.327,15.2a2.951,2.951,0,0,0,1.118,1.023,3.952,3.952,0,0,0,1.466.436A6.061,6.061,0,0,0,6.493,16.6a9.742,9.742,0,0,0,1.58-.4,14.274,14.274,0,0,0,4.156-2.251,14.83,14.83,0,0,0,2.288-2.221,14.984,14.984,0,0,0,1.777-2.679,14.675,14.675,0,0,0,1.168-3.036.7.7,0,0,0-.085-.6.734.734,0,0,0-.457-.289.807.807,0,0,0-.553.08.783.783,0,0,0-.374.506,12.77,12.77,0,0,1-.921,2.449,13.244,13.244,0,0,1-1.378,2.2,13.317,13.317,0,0,1-1.766,1.878,12.889,12.889,0,0,1-2.082,1.487c-.354.2-.735.4-1.132.581a10.61,10.61,0,0,1-1.229.473,7.347,7.347,0,0,1-1.264.281,4.866,4.866,0,0,1-1.237.007,1.948,1.948,0,0,1-1.146-.511,2,2,0,0,1-.524-.987,4.553,4.553,0,0,1-.093-1.248,11.37,11.37,0,0,1,.146-1.3.78.78,0,0,0-.137-.61.8.8,0,0,0-.47-.294.726.726,0,0,0-.531.081.712.712,0,0,0-.32.516Z" transform="translate(52.402 134.455)" fill="#f2d245"/>
  <path id="Path_3212" data-name="Path 3212" d="M.788,8.557a3.833,3.833,0,0,0,.259.963,3.6,3.6,0,0,0,.483.83,3.53,3.53,0,0,0,.678.664,3.591,3.591,0,0,0,.845.466,3.778,3.778,0,0,0,.994.24,4.216,4.216,0,0,0,1.008-.02,5.1,5.1,0,0,0,.994-.243A6.191,6.191,0,0,0,7,11.028,6.951,6.951,0,0,0,8.7,9.684a8.132,8.132,0,0,0,1.263-1.8A8.788,8.788,0,0,0,10.73,5.8a8.375,8.375,0,0,0,.209-2.2.723.723,0,0,0-.259-.557.769.769,0,0,0-.529-.159.8.8,0,0,0-.514.223.759.759,0,0,0-.214.588,6.8,6.8,0,0,1-.138,1.649A6.973,6.973,0,0,1,8.76,6.915,6.581,6.581,0,0,1,7.88,8.3a5.89,5.89,0,0,1-1.2,1.1,5.13,5.13,0,0,1-.618.365,4.139,4.139,0,0,1-.667.265,3.189,3.189,0,0,1-.694.127,2.569,2.569,0,0,1-.7-.047,2.32,2.32,0,0,1-.577-.2A2.368,2.368,0,0,1,2.9,9.554a2.008,2.008,0,0,1-.4-.49,1.671,1.671,0,0,1-.206-.6,1.074,1.074,0,0,0-.084-.3.846.846,0,0,0-.162-.242.67.67,0,0,0-.234-.158.686.686,0,0,0-.3-.045.706.706,0,0,0-.279.081.9.9,0,0,0-.246.188.811.811,0,0,0-.166.263.627.627,0,0,0-.037.307Z" transform="translate(63.514 152.263)" fill="#f2d245"/>
  <path id="Path_3213" data-name="Path 3213" d="M7.537,1.7q-.518.337-1.032.683t-1.02.706q-.506.36-1,.735t-.977.768a9.684,9.684,0,0,0-.839.768,6.168,6.168,0,0,0-.706.872,4.4,4.4,0,0,0-.5.994,3.849,3.849,0,0,0-.209,1.135,3.763,3.763,0,0,0,.432,1.87A3.542,3.542,0,0,0,2.232,11a3.193,3.193,0,0,0,.726.581,3.094,3.094,0,0,0,.894.349A3.4,3.4,0,0,0,4.81,12a3.662,3.662,0,0,0,.955-.194,3.712,3.712,0,0,0,.885-.446.762.762,0,0,0,.338-.514A.835.835,0,0,0,6.88,10.3a.735.735,0,0,0-.413-.34.663.663,0,0,0-.576.11,2.258,2.258,0,0,1-.574.283,2.167,2.167,0,0,1-.616.108,1.973,1.973,0,0,1-.611-.078A1.793,1.793,0,0,1,3.1,9.651a2.169,2.169,0,0,1-.274-.578,2.391,2.391,0,0,1-.1-.645A2.326,2.326,0,0,1,2.8,7.774a2.647,2.647,0,0,1,.368-.784,4.218,4.218,0,0,1,.572-.668,8.514,8.514,0,0,1,.675-.578c.231-.18.463-.35.678-.513q.391-.3.787-.584t.8-.568q.4-.28.805-.554t.815-.54a.74.74,0,0,0,.345-.5.812.812,0,0,0-.107-.543A.752.752,0,0,0,8.118,1.6a.676.676,0,0,0-.581.1Z" transform="translate(33.594 113.088)" fill="#f2d245"/>
  <path id="Path_3214" data-name="Path 3214" d="M2.632.549a5.734,5.734,0,0,0-.74.723,4.577,4.577,0,0,0-.58.856,3.459,3.459,0,0,0-.336.961A2.918,2.918,0,0,0,.971,4.127a2.517,2.517,0,0,0,.811,1.445,2.1,2.1,0,0,0,.7.412,1.782,1.782,0,0,0,.817.082.856.856,0,0,0,.28-.092.886.886,0,0,0,.237-.182.789.789,0,0,0,.158-.252.712.712,0,0,0,.045-.3.85.85,0,0,0-.073-.289A.82.82,0,0,0,3.785,4.7a.667.667,0,0,0-.236-.156.585.585,0,0,0-.289-.032l-.032,0-.033,0-.032,0-.032,0-.085,0,.07,0,.038,0H3.16l-.027,0L3.1,4.524l-.031,0-.031,0-.03-.006-.058-.016-.039-.011c-.007,0-.007,0,0,0L2.95,4.5l.074.024a.357.357,0,0,0-.05-.031l-.058-.028-.059-.026c-.019-.009-.037-.018-.053-.027-.032-.019-.04-.021-.035-.015a.314.314,0,0,0,.04.033.3.3,0,0,0,.044.028c.007,0,0,0-.024-.029L2.8,4.4l-.024-.021-.024-.021-.023-.022L2.71,4.317l-.023-.023L2.665,4.27l-.022-.025A.346.346,0,0,1,2.6,4.194c0-.008,0-.008.006,0a.141.141,0,0,1,.026.029.107.107,0,0,1,.019.044.17.17,0,0,0-.023-.059.72.72,0,0,0-.044-.067l-.049-.066A.527.527,0,0,1,2.5,4.019l-.018-.034L2.46,3.942,2.45,3.924l.025.042A.192.192,0,0,0,2.5,4,.078.078,0,0,0,2.49,3.98l-.022-.052c-.007-.017-.014-.033-.016-.04l-.01-.032-.009-.032-.009-.032-.009-.032-.01-.044L2.4,3.673c0-.008,0-.009,0,0s0,.017.005.034l.012.072a.268.268,0,0,0,0-.064c0-.023,0-.046-.006-.07S2.407,3.593,2.4,3.57a.5.5,0,0,1,0-.067l0-.118L2.4,3.473a.117.117,0,0,1,0-.039A.4.4,0,0,1,2.4,3.389c0-.016.008-.032.012-.047s.007-.029.009-.041l.011-.05L2.449,3.2l.013-.049L2.476,3.1,2.5,3.023l-.022.058-.012.029s0,0,0,0l.011-.029.037-.087.038-.086q.019-.043.04-.086t.044-.085L2.658,2.7l.022-.038L2.7,2.624l.022-.039.032-.05.026-.04.006-.009-.015.023-.037.054c.007,0,.023-.015.042-.039s.043-.056.067-.089l.067-.1c.02-.028.035-.05.043-.058l.058-.068.06-.066.061-.065L3.2,2.021l.037-.036.038-.036.038-.036.037-.036.021-.019s0,0,0,0l-.02.019-.04.036.087-.074A1.023,1.023,0,0,0,3.6,1.614a.953.953,0,0,0,.128-.273.754.754,0,0,0,.025-.293.657.657,0,0,0-.1-.284.781.781,0,0,0-.2-.2A.807.807,0,0,0,3.188.437.664.664,0,0,0,2.9.423a.587.587,0,0,0-.27.126Z" transform="translate(47.111 112.757)" fill="#f2d245"/>
  <path id="Path_3215" data-name="Path 3215" d="M4.953,2.838a2.168,2.168,0,0,1,.887-.2,3.2,3.2,0,0,1,.9.123,6.035,6.035,0,0,1,.874.322c.282.126.552.265.8.394a5.624,5.624,0,0,1,.747.462,3.83,3.83,0,0,1,.684.635,2.086,2.086,0,0,1,.422.783,1.517,1.517,0,0,1-.04.908,1.986,1.986,0,0,1-.252.481,3.418,3.418,0,0,1-.362.428c-.133.135-.274.264-.415.387s-.281.242-.412.357q-.168.149-.339.293T8.1,8.493q-.175.139-.354.273t-.362.261a8.055,8.055,0,0,1-.734.454,5.081,5.081,0,0,1-.775.344A3.506,3.506,0,0,1,5.067,10a2.873,2.873,0,0,1-.843-.045.719.719,0,0,0-.608.129.894.894,0,0,0-.23,1.075.708.708,0,0,0,.5.36,4.384,4.384,0,0,0,1.843-.02,6.375,6.375,0,0,0,1.729-.678A11.484,11.484,0,0,0,9.046,9.737c.5-.4.975-.832,1.416-1.246a5.455,5.455,0,0,0,.736-.843,4.01,4.01,0,0,0,.5-.947,3.1,3.1,0,0,0,.186-1.025,3,3,0,0,0-.2-1.078,3.835,3.835,0,0,0-.513-.94,4.558,4.558,0,0,0-.718-.759,6.35,6.35,0,0,0-.863-.61,9.71,9.71,0,0,0-.948-.49c-.316-.144-.648-.285-.989-.405a6.472,6.472,0,0,0-1.048-.28,4.087,4.087,0,0,0-1.07-.05,3.166,3.166,0,0,0-1.058.284,1.076,1.076,0,0,0-.264.175.926.926,0,0,0-.191.238.771.771,0,0,0-.092.285.748.748,0,0,0,.032.314.729.729,0,0,0,.149.259.846.846,0,0,0,.242.19.746.746,0,0,0,.294.085.613.613,0,0,0,.3-.056Z" transform="translate(149.153 70.322)" fill="#f2d245"/>
  <path id="Path_3216" data-name="Path 3216" d="M32.228,13.493c.243.213.5.438.743.677a8.348,8.348,0,0,1,.7.76,4.832,4.832,0,0,1,.56.857,3.3,3.3,0,0,1,.316.966,2.456,2.456,0,0,1-.206,1.468,3.39,3.39,0,0,1-.919,1.131,6.4,6.4,0,0,1-1.312.82,9.963,9.963,0,0,1-1.384.535,11.916,11.916,0,0,1-2.35.463A14.638,14.638,0,0,1,26,21.2a19.025,19.025,0,0,1-2.356-.311c-.776-.15-1.54-.341-2.283-.558-.838-.244-1.661-.523-2.477-.821s-1.623-.613-2.43-.932-1.61-.638-2.419-.944-1.621-.6-2.445-.86c-.844-.267-1.7-.5-2.558-.7s-1.726-.377-2.6-.533-1.743-.292-2.617-.419-1.749-.243-2.622-.359a.762.762,0,0,0-.607.168.922.922,0,0,0-.3.51A.8.8,0,0,0,.359,16a.648.648,0,0,0,.5.318c1.147.152,2.283.316,3.409.5s2.246.4,3.356.638,2.214.519,3.311.84,2.189.687,3.275,1.108c.952.368,1.9.749,2.861,1.117s1.922.723,2.9,1.04a29.411,29.411,0,0,0,2.972.808,20.231,20.231,0,0,0,3.081.42,17.553,17.553,0,0,0,2.448-.034,14.178,14.178,0,0,0,2.546-.443,9.691,9.691,0,0,0,2.362-.978,6.688,6.688,0,0,0,1.895-1.64,4.058,4.058,0,0,0,.879-2.056,4.19,4.19,0,0,0-.291-2,7.173,7.173,0,0,0-1.077-1.822,11.741,11.741,0,0,0-1.478-1.536.716.716,0,0,0-.6-.184.889.889,0,0,0-.514.291.868.868,0,0,0-.23.539.7.7,0,0,0,.257.56Z" transform="translate(129.828 72.18)" fill="#f2d245"/>
  <path id="Path_3217" data-name="Path 3217" d="M7.821,2.994a2.606,2.606,0,0,1,.76.392,3.1,3.1,0,0,1,.606.6,3.821,3.821,0,0,1,.445.741,4.3,4.3,0,0,1,.279.818,3.727,3.727,0,0,1,.1.912,3.841,3.841,0,0,1-.124.9,4.015,4.015,0,0,1-.328.848,4.176,4.176,0,0,1-.517.766A5.291,5.291,0,0,1,7.4,10.244a5.672,5.672,0,0,1-1.983.588,4.9,4.9,0,0,1-2.008-.2A4.047,4.047,0,0,1,1.7,9.562a.661.661,0,0,0-.562-.227.808.808,0,0,0-.5.275.935.935,0,0,0-.24.551.781.781,0,0,0,.222.6A5.206,5.206,0,0,0,2.39,11.989a6.14,6.14,0,0,0,2.094.466,7.311,7.311,0,0,0,4.191-1.1,6.423,6.423,0,0,0,1.535-1.347,6.147,6.147,0,0,0,1.007-1.722,5.58,5.58,0,0,0,.371-1.938,5.277,5.277,0,0,0-.372-1.995,5.522,5.522,0,0,0-.512-1,4.9,4.9,0,0,0-.687-.837,4.624,4.624,0,0,0-.853-.655,4.762,4.762,0,0,0-1.01-.452.58.58,0,0,0-.308-.01.794.794,0,0,0-.286.134.961.961,0,0,0-.225.232.808.808,0,0,0-.126.284.789.789,0,0,0,0,.325.721.721,0,0,0,.119.272.847.847,0,0,0,.214.208,1.046,1.046,0,0,0,.282.135Z" transform="translate(142.907 119.899)" fill="#f2d245"/>
  <path id="Path_3218" data-name="Path 3218" d="M25.332,12.486a1.528,1.528,0,0,1,.844.7,1.636,1.636,0,0,1,.15.984,3.086,3.086,0,0,1-.356,1.053,3.83,3.83,0,0,1-.675.9,4.964,4.964,0,0,1-.746.6,5.107,5.107,0,0,1-1.746.731,4.772,4.772,0,0,1-2.978-.321,6.931,6.931,0,0,1-1.74-1.143,12.773,12.773,0,0,1-1.475-1.558c-.452-.555-.865-1.129-1.248-1.673Q14.2,11.115,13.013,9.514T10.578,6.371Q9.333,4.829,8.02,3.348T5.3.46A.651.651,0,0,0,4.746.252.82.82,0,0,0,4.251.53a.91.91,0,0,0-.233.54.737.737,0,0,0,.227.578Q5.254,2.662,6.228,3.713T8.14,5.851Q9.078,6.94,9.976,8.067t1.756,2.293c.5.674.973,1.387,1.457,2.1s.974,1.441,1.494,2.136a18.249,18.249,0,0,0,1.672,1.967,10.648,10.648,0,0,0,1.993,1.6,6.614,6.614,0,0,0,3.891.956,6.472,6.472,0,0,0,3.771-1.538,5.565,5.565,0,0,0,1.253-1.564,5.194,5.194,0,0,0,.619-1.9,3.085,3.085,0,0,0-.3-1.8,2.768,2.768,0,0,0-1.515-1.264.78.78,0,0,0-.636.023A.962.962,0,0,0,25,11.5a.8.8,0,0,0-.078.56.629.629,0,0,0,.41.427Z" transform="translate(108.376 106.787)" fill="#f2d245"/>
  <path id="Path_3219" data-name="Path 3219" d="M5.644,2.459q-.01.051-.021.1t-.023.1q-.012.05-.026.1t-.028.1c-.005.017-.012.038-.019.056l-.017.046,0,.008.023-.058-.019.047-.019.047-.019.046L5.452,3.1q-.021.047-.043.093t-.046.092q-.024.046-.048.09c-.017.03-.033.059-.051.087l-.026.044-.027.044L5.184,3.6l-.027.043L5.2,3.572c0-.006,0,0-.012.017l-.034.053-.027.042q-.063.082-.13.161T4.857,4q-.07.075-.142.147t-.148.143a.442.442,0,0,0-.052.05.275.275,0,0,0,.032-.025.262.262,0,0,0,.03-.027.416.416,0,0,0-.059.043l-.042.03-.041.031-.041.031-.042.031-.083.061-.085.058L4.1,4.627l-.088.054-.044.024-.044.025-.044.025-.046.024L3.785,4.8l-.056.027-.02.011.061-.026-.094.041-.094.039-.095.037-.1.034L3.3,5l-.1.031-.1.028-.1.025-.05.011-.06.013-.022,0L2.94,5.1l-.049.008-.049.008-.049.008-.048.006-.1.013-.1.01-.1.006-.1,0H2.178l-.1,0,.049,0h.02l-.03,0c-.032-.007-.065-.012-.1-.017l-.1-.013-.1-.014c-.033-.005-.066-.011-.1-.018l-.049-.01-.049-.012-.049-.012-.05-.012-.054-.018L1.4,5.012,1.371,5l.068.026a1.083,1.083,0,0,0-.3-.063.919.919,0,0,0-.3.03.726.726,0,0,0-.268.137.713.713,0,0,0-.2.258.922.922,0,0,0-.075.3.993.993,0,0,0,.025.32.745.745,0,0,0,.133.281.56.56,0,0,0,.25.183,4.565,4.565,0,0,0,2.076.263,4.854,4.854,0,0,0,1.027-.223,5.362,5.362,0,0,0,.986-.444,5.119,5.119,0,0,0,.846-.614,5.165,5.165,0,0,0,.709-.776,4.9,4.9,0,0,0,.533-.906,4.487,4.487,0,0,0,.318-1,.852.852,0,0,0,0-.315.881.881,0,0,0-.112-.292.772.772,0,0,0-.207-.226.669.669,0,0,0-.288-.119.856.856,0,0,0-.311.01.87.87,0,0,0-.286.118.8.8,0,0,0-.223.214.756.756,0,0,0-.124.3Z" transform="translate(140.223 138.352)" fill="#f2d245"/>
</svg>
