<svg xmlns="http://www.w3.org/2000/svg" width="126.357" height="93.932" viewBox="0 0 126.357 93.932">
  <g id="Group_1332" data-name="Group 1332" transform="matrix(0.883, 0.469, -0.469, 0.883, 266.312, -535.499)">
    <path id="Path_2553" data-name="Path 2553" d="M41.526,627.021a19.9,19.9,0,0,0,14.135,3.528c5.527-.914,10.488-3.725,15.285-6.519,13.549-7.9,28.856-10.731,43.552-15.709.169-.06.084-.333-.09-.3-11.346,2.139-22.561,6.116-33.363,10.108-5.688,2.1-10.752,5.276-16.159,7.951-5.666,2.8-11.8,4.642-17.979,2.334-4.836-1.814-9.744-5.576-11.354-10.714-2.289-7.351,3.792-13.143,9.6-16.562a58.776,58.776,0,0,1,9.553-4.423c-5.041,5.935,5.353,13.321,7.187,18.505.2.575,1.021.267.968-.287-.321-3-3.1-5.558-4.889-7.779-2.587-3.235-4.752-6.457-2.695-10.56a.2.2,0,0,0,0-.09c3.743-1.348,7.584-2.445,11.395-3.5A85.36,85.36,0,0,1,83.4,589.974c-1.316,2.48-.719,4.981.736,7.378,2.034,3.318,4,5.7,3.02,9.746-.12.492.5.9.821.436,1.637-2.371.54-5.334-.861-7.526-2.026-3.172-4.725-6.141-3.127-10.072,1.315-.079,2.646-.134,3.962-.13a52.747,52.747,0,0,1,12.982,1.674.216.216,0,0,0-.214.164,12.406,12.406,0,0,0-.148,4.935,6.4,6.4,0,0,1-1.673,5.852c-.366.507.294,1.037.772.706,3.636-2.528,1.485-7.822,1.543-11.379a.255.255,0,0,0-.148-.243,66.324,66.324,0,0,1,7.429,2.413c.335.131.665.261,1,.392a.209.209,0,0,0-.022.273,7.726,7.726,0,0,1,1.12,5.032c-.17,1.582-.719,3.114-.821,4.693a.509.509,0,0,0,.981.228c1.13-3.031,1.625-7.3-.566-9.96a59.609,59.609,0,0,0,8.9,2.847.405.405,0,0,0,0,.218,10.652,10.652,0,0,1,.117,5.193,17.608,17.608,0,0,0-.643,4.353.5.5,0,0,0,.955.092,27.7,27.7,0,0,0,.933-5.132,8.075,8.075,0,0,0-.589-4.561,25.043,25.043,0,0,0,6.942.407l.027-.008a.522.522,0,0,0,.286.374,28.718,28.718,0,0,1,5.42,3.618,85.693,85.693,0,0,1-9.529,4.279.553.553,0,0,0,.03,1.017c9.356,2.89,18.77,10.961,29.08,7.953a.572.572,0,0,0,.343-.91c-3.787-5.52-10.457-7.164-16.087-10.147,5.947-2.954,11.448-7.174,17.694-9.382a.614.614,0,0,0-.035-1.127c-9.177-2.435-18.439,4.144-27.759,3.046a.333.333,0,0,0-.254.557c-8.521-.23-15.847-4.727-23.909-6.935a58.1,58.1,0,0,0-23.466-1.12,119.913,119.913,0,0,0-19.635,4.787c-6.821,2.175-14.094,4.91-19.474,9.828-3.547,3.244-6.612,7.514-5.558,12.6A17.333,17.333,0,0,0,41.526,627.021Zm86.529-29.332c3.8.491,7.5-.222,11.283-1.129a53.093,53.093,0,0,1,12.246-1.752c-5.452,3.077-11,6.2-16.65,8.828a.562.562,0,0,0-.094.968c5.452,3.12,12.242,4.626,16.253,9.745-9.235,2.166-17.841-4.59-26.286-7.633A66.68,66.68,0,0,0,133.7,602.6c.273-.164.491-.59.2-.861A22.46,22.46,0,0,0,128.055,597.69Z" transform="translate(0 0)" fill="#b58156"/>
    <path id="Path_2554" data-name="Path 2554" d="M73.4,611.253c-.62-4-3.622-7.284-5.572-10.7-1.549-2.7-2.659-6.275.321-8.38.152-.107.393.076.254.232-5.353,6.11,6.919,12.474,5.759,18.821A.386.386,0,0,1,73.4,611.253Z" transform="translate(1.367 0.152)" fill="#b58156"/>
    <path id="Path_2555" data-name="Path 2555" d="M43.5,612.529c-1.615-2.556-3.217-5.469-3.078-8.582.018-.526.789-.515.883-.027.759,3.908,2.32,6.748,4.381,10.113,1.535,2.5,3.284,5.276,3.154,8.322a.15.15,0,0,1-.286.05A51.161,51.161,0,0,0,43.5,612.529Z" transform="translate(0.28 0.632)" fill="#b58156"/>
    <path id="Path_2556" data-name="Path 2556" d="M97.8,627.651c3.244-.219,5.3-1.781,5.452-5.224a.647.647,0,0,1,.705-.583c2.6.32,10.907-1.064,7.009-4.855-.313-.3-.08-.764.218-.938,3.315-1.929,3.306-5.254.907-7.925-.174-.185.1-.474.3-.324,3.3,2.475,3.016,6.55-.058,8.9,3.725,4.281-3.921,6.611-7.856,6.481-.424,3.43-3.074,6.3-6.768,5.433A.5.5,0,0,1,97.8,627.651Z" transform="translate(2.676 0.809)" fill="#b58156"/>
    <path id="Path_2557" data-name="Path 2557" d="M69.221,640.732c2.962-.838,5.916-1.432,8.8-2.547,3.025-1.167,7.164-2.926,8.351-6.23a.613.613,0,0,1,.772-.356c3.686,1.349,6.233-1.317,8.736-3.6.151-.137.334.074.25.229-1.8,3.21-5.188,5.491-8.829,4.646-1.3,2.973-4.738,4.662-7.509,5.919-3.105,1.412-7.076,2.977-10.541,2.926C68.645,641.706,68.73,640.874,69.221,640.732Z" transform="translate(1.475 1.658)" fill="#b58156"/>
    <path id="Path_2558" data-name="Path 2558" d="M44.087,630.056c-.187-.663.919-.988,1.147-.343,1.017,2.819,2.842,7.442,6.661,6.272a.631.631,0,0,1,.812.312c1.231,2.424,3.435,3.515,5.938,2.073a.588.588,0,0,1,.776.3,4.833,4.833,0,0,0,6.121,2.689c.326-.092.446.417.165.553-2.85,1.387-5.451.282-7.039-2.207-2.708,1.378-5.327.083-6.831-2.446C47.63,638.134,45.1,633.68,44.087,630.056Z" transform="translate(0.433 1.717)" fill="#b58156"/>
    <path id="Path_2559" data-name="Path 2559" d="M97.279,617.566a7.228,7.228,0,0,0,3.1-.891,4.649,4.649,0,0,0,1.651-2.817c.067-.3.491-.158.487.11-.076,2.594-2.521,5.385-5.319,4.454A.448.448,0,0,1,97.279,617.566Z" transform="translate(2.656 1.058)" fill="#b58156"/>
    <path id="Path_2560" data-name="Path 2560" d="M89.892,618.7a2.472,2.472,0,0,1,1.289-2.879c.143-.084.3.126.205.247a2.3,2.3,0,0,0-.638,2.375c.383.9,1.459,1.274,2.288,1.624.455.189.317.931-.192.861A3.5,3.5,0,0,1,89.892,618.7Z" transform="translate(2.356 1.147)" fill="#b58156"/>
    <path id="Path_2561" data-name="Path 2561" d="M84,625.638a3.555,3.555,0,0,0,6.17-1.491.164.164,0,0,1,.317.074c-.307,3.706-5.068,4.894-7.37,2.15C82.638,625.795,83.508,625.094,84,625.638Z" transform="translate(2.07 1.493)" fill="#b58156"/>
    <path id="Path_2562" data-name="Path 2562" d="M72.922,634.123c2.124-.088,2.8-1.068,3.859-2.726a3.281,3.281,0,0,1,2.695-1.679c.152,0,.152.214.041.271-2.753,1.484-2.708,5.881-6.67,4.918A.409.409,0,0,1,72.922,634.123Z" transform="translate(1.633 1.732)" fill="#b58156"/>
    <path id="Path_2563" data-name="Path 2563" d="M59.9,633.109c-.018-.2.268-.312.353-.1,1.213,3.07,4.2,1.132,6.219.161a.4.4,0,0,1,.481.594C65.286,635.871,60.151,636.848,59.9,633.109Z" transform="translate(1.099 1.866)" fill="#b58156"/>
    <path id="Path_2564" data-name="Path 2564" d="M70.546,626.5c3.23,1.187,4.529-2.9,6.326-4.611.307-.3.759.1.643.46a10.146,10.146,0,0,1-3.213,4.043,3.129,3.129,0,0,1-3.921.421A.179.179,0,0,1,70.546,626.5Z" transform="translate(1.537 1.398)" fill="#b58156"/>
  </g>
</svg>
