<svg xmlns="http://www.w3.org/2000/svg" xmlns:xlink="http://www.w3.org/1999/xlink" width="21.4" height="21.453" viewBox="0 0 21.4 21.453">
  <defs>
    <clipPath id="clip-path">
      <rect id="Rectangle_1313" data-name="Rectangle 1313" width="21.4" height="21.453" fill="none"/>
    </clipPath>
  </defs>
  <g id="Group_2635" data-name="Group 2635" transform="translate(0 0)">
    <g id="Group_2634" data-name="Group 2634" transform="translate(0 0)" clip-path="url(#clip-path)">
      <path id="Path_3778" data-name="Path 3778" d="M0,21.452l1.538-5.738a10.618,10.618,0,1,1,4.23,4.193Zm6.055-3.7.363.216a8.62,8.62,0,1,0-2.95-2.923l.223.366-.859,3.2Z" transform="translate(0 0)" fill="#fff"/>
      <path id="Path_3779" data-name="Path 3779" d="M18.434,15.806a1.781,1.781,0,0,0-1.518-.342c-.394.161-.646.779-.9,1.093a.377.377,0,0,1-.489.106,6.874,6.874,0,0,1-3.43-2.938.42.42,0,0,1,.053-.574,2.327,2.327,0,0,0,.623-1.011,2.212,2.212,0,0,0-.279-1.2,2.834,2.834,0,0,0-.884-1.332,1.212,1.212,0,0,0-1.315.2,2.671,2.671,0,0,0-.926,2.115,3,3,0,0,0,.083.671,5.545,5.545,0,0,0,.645,1.484,11.788,11.788,0,0,0,.672,1.023,10.39,10.39,0,0,0,2.916,2.707,8.817,8.817,0,0,0,1.818.865,4.036,4.036,0,0,0,2.117.335,2.565,2.565,0,0,0,1.92-1.428,1.244,1.244,0,0,0,.089-.729c-.11-.5-.789-.8-1.2-1.043" transform="translate(-3.689 -3.736)" fill="#fff" fill-rule="evenodd"/>
    </g>
  </g>
</svg>
