<svg xmlns="http://www.w3.org/2000/svg" width="29" height="22.786" viewBox="0 0 29 22.786">
  <g id="Icon_ionic-ios-bed" data-name="Icon ionic-ios-bed" transform="translate(-2.25 -5.625)">
    <path id="Path_1371" data-name="Path 1371" d="M29.839,14.625h-.026A1.414,1.414,0,0,0,28.4,16.036a.144.144,0,0,1-.142.142H5.241a.144.144,0,0,1-.142-.142,1.414,1.414,0,0,0-1.411-1.411H3.661A1.414,1.414,0,0,0,2.25,16.036V27.714a1.414,1.414,0,0,0,1.411,1.411h.026A1.414,1.414,0,0,0,5.1,27.714v-.4a.26.26,0,0,1,.259-.259H28.143a.26.26,0,0,1,.259.259v.4a1.414,1.414,0,0,0,1.411,1.411h.026a1.414,1.414,0,0,0,1.411-1.411V16.036A1.414,1.414,0,0,0,29.839,14.625Z" transform="translate(0 -0.714)" fill="#b58156"/>
    <path id="Path_1372" data-name="Path 1372" d="M5.862,14.3H7.318a.26.26,0,0,0,.259-.259V13.2a1.039,1.039,0,0,1,1.036-1.036h6.311A1.039,1.039,0,0,1,15.96,13.2v.842a.26.26,0,0,0,.259.259h1.554a.26.26,0,0,0,.259-.259V13.2a1.039,1.039,0,0,1,1.036-1.036h6.311A1.039,1.039,0,0,1,26.414,13.2v.842a.26.26,0,0,0,.259.259h1.456a.519.519,0,0,0,.518-.518V7.7a2.078,2.078,0,0,0-2.071-2.071H7.415A2.078,2.078,0,0,0,5.344,7.7v6.085A.519.519,0,0,0,5.862,14.3Z" transform="translate(-0.246)" fill="#b58156"/>
  </g>
</svg>
