<svg xmlns="http://www.w3.org/2000/svg" width="18.25" height="18.25" viewBox="0 0 18.25 18.25">
  <g id="Icon_ionic-ios-arrow-dropleft-circle" data-name="Icon ionic-ios-arrow-dropleft-circle" transform="translate(18.25 18.25) rotate(180)">
    <path id="Icon_ionic-ios-arrow-dropleft-circle-2" data-name="Icon ionic-ios-arrow-dropleft-circle" d="M12.5,3.375A9.125,9.125,0,1,0,21.625,12.5,9.124,9.124,0,0,0,12.5,3.375Zm1.9,12.683a.85.85,0,0,1,0,1.2.836.836,0,0,1-.6.246.851.851,0,0,1-.6-.25L9.083,13.114a.846.846,0,0,1,.026-1.167l4.185-4.2a.847.847,0,0,1,1.2,1.2L10.9,12.5Z" transform="translate(-3.375 -3.375)" fill="#b58156"/>
  </g>
</svg>
