<svg id="Icon_awesome-expand-arrows-alt" data-name="Icon awesome-expand-arrows-alt" xmlns="http://www.w3.org/2000/svg" width="21.5" height="21.5" viewBox="0 0 21.5 21.5">
  <path id="Icon_awesome-expand-arrows-alt-2" data-name="Icon awesome-expand-arrows-alt" d="M21.5,17.223V22.6a1.149,1.149,0,0,1-1.152,1.152H14.973a1.153,1.153,0,0,1-.816-1.968l1.737-1.737L10.75,14.9,5.6,20.05l1.739,1.732a1.153,1.153,0,0,1-.816,1.968H1.152A1.149,1.149,0,0,1,0,22.6V17.223a1.153,1.153,0,0,1,1.968-.816L3.7,18.145,8.852,13,3.7,7.851,1.968,9.593A1.153,1.153,0,0,1,0,8.777V3.4A1.149,1.149,0,0,1,1.152,2.25H6.527a1.153,1.153,0,0,1,.816,1.968L5.605,5.955,10.75,11.1,15.9,5.95,14.157,4.218a1.153,1.153,0,0,1,.816-1.968h5.375A1.149,1.149,0,0,1,21.5,3.4V8.777a1.153,1.153,0,0,1-1.968.816L17.8,7.855,12.648,13,17.8,18.149l1.736-1.737A1.151,1.151,0,0,1,21.5,17.223Z" transform="translate(0 -2.25)" fill="#b58156"/>
</svg>
