<svg xmlns="http://www.w3.org/2000/svg" width="38.924" height="26" viewBox="0 0 38.924 26">
  <path id="Icon_payment-cash" data-name="Icon payment-cash" d="M45.373,17.642V41.057a1.668,1.668,0,0,1-.38.912,1.242,1.242,0,0,1-.912.381H7.741a1.238,1.238,0,0,1-.912-.38,1.662,1.662,0,0,1-.38-.912V17.642a1.666,1.666,0,0,1,.38-.912,1.244,1.244,0,0,1,.912-.38H44.081a1.247,1.247,0,0,1,.912.38,1.674,1.674,0,0,1,.381.912ZM42.789,34.52V24.18a4.973,4.973,0,0,1-3.649-1.52,5.061,5.061,0,0,1-1.52-3.725H14.2a5.065,5.065,0,0,1-1.52,3.725,4.976,4.976,0,0,1-3.649,1.52V34.519a4.981,4.981,0,0,1,3.649,1.52,5.068,5.068,0,0,1,1.52,3.725H37.619a5.065,5.065,0,0,1,1.52-3.725,4.979,4.979,0,0,1,3.649-1.52ZM32.373,29.35a13.323,13.323,0,0,1-.38,2.889,9.743,9.743,0,0,1-1.216,2.737,6.607,6.607,0,0,1-2.052,2.052,5.583,5.583,0,0,1-5.625,0,6.585,6.585,0,0,1-2.052-2.052,9.717,9.717,0,0,1-1.216-2.737,13.26,13.26,0,0,1-.38-2.889,13.272,13.272,0,0,1,.38-2.889,9.712,9.712,0,0,1,1.216-2.737A6.607,6.607,0,0,1,23.1,21.671a5.582,5.582,0,0,1,5.625,0,6.64,6.64,0,0,1,2.052,2.052,9.746,9.746,0,0,1,1.216,2.737,13.31,13.31,0,0,1,.381,2.889ZM22.034,34.52h7.754v-1.9H27.2V23.5H24.923l-3.041,2.813,1.6,1.6a12.447,12.447,0,0,0,1.064-1.14h.076v5.854H22.034v1.9Z" transform="translate(-6.449 -16.35)" fill="#b58156"/>
</svg>
