<svg id="Icon_awesome-calendar-alt" data-name="Icon awesome-calendar-alt" xmlns="http://www.w3.org/2000/svg" width="23.5" height="27" viewBox="0 0 23.5 27">
  <path id="Icon_awesome-calendar-alt-2" data-name="Icon awesome-calendar-alt" d="M0,24.469A2.525,2.525,0,0,0,2.518,27H20.982A2.525,2.525,0,0,0,23.5,24.469V10.125H0ZM16.786,14.133a.633.633,0,0,1,.629-.633h2.1a.633.633,0,0,1,.629.633v2.109a.633.633,0,0,1-.629.633h-2.1a.633.633,0,0,1-.629-.633Zm0,6.75a.633.633,0,0,1,.629-.633h2.1a.633.633,0,0,1,.629.633v2.109a.633.633,0,0,1-.629.633h-2.1a.633.633,0,0,1-.629-.633Zm-6.714-6.75A.633.633,0,0,1,10.7,13.5h2.1a.633.633,0,0,1,.629.633v2.109a.633.633,0,0,1-.629.633H10.7a.633.633,0,0,1-.629-.633Zm0,6.75a.633.633,0,0,1,.629-.633h2.1a.633.633,0,0,1,.629.633v2.109a.633.633,0,0,1-.629.633H10.7a.633.633,0,0,1-.629-.633Zm-6.714-6.75a.633.633,0,0,1,.629-.633h2.1a.633.633,0,0,1,.629.633v2.109a.633.633,0,0,1-.629.633h-2.1a.633.633,0,0,1-.629-.633Zm0,6.75a.633.633,0,0,1,.629-.633h2.1a.633.633,0,0,1,.629.633v2.109a.633.633,0,0,1-.629.633h-2.1a.633.633,0,0,1-.629-.633ZM20.982,3.375H18.464V.844A.844.844,0,0,0,17.625,0H15.946a.844.844,0,0,0-.839.844V3.375H8.393V.844A.844.844,0,0,0,7.554,0H5.875a.844.844,0,0,0-.839.844V3.375H2.518A2.525,2.525,0,0,0,0,5.906V8.438H23.5V5.906A2.525,2.525,0,0,0,20.982,3.375Z" fill="#b58156"/>
</svg>
