<svg xmlns="http://www.w3.org/2000/svg" width="19.5" height="22.75" viewBox="0 0 19.5 22.75">
  <g id="login" transform="translate(-4.5 -2.25)">
    <path id="Path_4130" data-name="Path 4130" d="M24.875,25h-9.75A1.625,1.625,0,0,1,13.5,23.375V20.938h1.625v2.438h9.75V3.875h-9.75V6.313H13.5V3.875A1.625,1.625,0,0,1,15.125,2.25h9.75A1.625,1.625,0,0,1,26.5,3.875v19.5A1.625,1.625,0,0,1,24.875,25Z" transform="translate(-2.5 0)" fill="#fff"/>
    <path id="Path_4131" data-name="Path 4131" d="M13.1,19.855l2.908-2.917H4.5V15.313H16.013L13.1,12.4,14.25,11.25l4.875,4.875L14.25,21Z" transform="translate(0 -2.5)" fill="#fff"/>
  </g>
</svg>
