<svg xmlns="http://www.w3.org/2000/svg" width="315.868" height="72.992" viewBox="0 0 315.868 72.992">
  <g id="Group_580" data-name="Group 580" transform="translate(983.273 -1053.367)">
    <path id="Path_28" data-name="Path 28" d="M-935.3,1084.7q0,3.854-5.687,9.042a41.931,41.931,0,0,1-14.4,8.467,48.87,48.87,0,0,1-16.449,2.846q-11.446,0-11.445-6.874,0-4.1,6.442-7.487a22.108,22.108,0,0,1,10.222-2.987q1.475,0,1.476.9,0,.613-1.508.828a33.117,33.117,0,0,0-8.474,2.52q-5.747,2.52-5.746,5.651,0,3.816,8.883,3.815a47.268,47.268,0,0,0,15.5-2.881,43.263,43.263,0,0,0,13.845-7.528q5.251-4.465,5.251-6.7,0-2.2-7.091-3.025-11.734-1.369-13.137-1.694-7.091-1.728-7.09-6.123,0-5.583,8.314-10.626a67.215,67.215,0,0,1,17.312-6.988q9.214-2.486,14.757-2.485,7.09,0,7.09,4.391,0,3.78-6.587,8.89-6.371,4.931-10.4,4.931-3.239,0-3.239-2.232,0-1.87,3.707-4.391,3.527-2.375,5.507-2.376.683,0,.684.432l-3.707,2.015q-3.707,2.016-3.851,2.952a.7.7,0,0,0,.614.252q2.6,0,8.55-3.455,6.313-3.672,6.313-6.047,0-2.087-5.043-2.087-5.763,0-16.246,3.317a98.894,98.894,0,0,0-12.391,4.759q-9.222,4.326-9.222,7.823,0,2.236,5.831,3.317l11.554,1.49q6.765,1.009,8.242,2.954A7.388,7.388,0,0,1-935.3,1084.7Z" transform="translate(0)" fill="#41342a"/>
    <path id="Path_29" data-name="Path 29" d="M-906.058,1133.21a1.542,1.542,0,0,1-1.728-1.763,4.485,4.485,0,0,1,1.386-2.988,3.938,3.938,0,0,1,2.861-1.512q1.836,0,1.836,1.764a4.435,4.435,0,0,1-1.476,2.952A4.13,4.13,0,0,1-906.058,1133.21Z" transform="translate(-29.885 -29.13)" fill="#41342a"/>
    <path id="Path_30" data-name="Path 30" d="M-795.868,1082.42q-11.966,10.295-15.641,13.1-12.11,9.285-17.191,9.286-5.335,0-5.334-6.119,0-6.19,7.379-14.468a163.569,163.569,0,0,1,12.2-11.553q6.8-6.011,10.438-9.575,4.355-4.245,4.355-5.111c0-.263-.168-.4-.5-.4q-2.232,0-9.934,3.527a70.572,70.572,0,0,0-15.764,10.293q-8.063,6.768-8.062,8.674,0,.721.936.72a15.408,15.408,0,0,0,6.083-1.836l3.671-1.835c.192.072.288.179.288.324q0,1.295-4.5,3.419-4.247,2.016-6.046,2.015-2.915,0-2.915-2.591,0-3.672,8.026-10.474a77.488,77.488,0,0,1,13.389-9q9.321-5.074,14.972-5.075,3.1,0,3.1,2.735,0,3.385-9.019,12.022l-16.767,15.729q-8.984,9.215-8.983,13.929a2.179,2.179,0,0,0,2.448,2.483q4.968,0,18.507-10.473,8.1-6.262,17.247-14.613,3.816-3.491,15.483-15.477,3.443-3.563,4.2-3.563a2.881,2.881,0,0,1,1.489.468,1.329,1.329,0,0,1,.771,1.116,2.389,2.389,0,0,1-.756,1.547l-42.594,48.122-4.681,4.679q-3.384,3.346-3.744,4.571a4.7,4.7,0,0,0,1.423-.9,2.609,2.609,0,0,1,1.241-.756.5.5,0,0,1,.486.288q-.036.539-3.3,3.419a41.491,41.491,0,0,0-4.565,4.571q-1.327,1.655-2.188,1.656a1.982,1.982,0,0,1-1.435-.719,2.189,2.189,0,0,1-.68-1.512q0-1.224,2.162-3.671l25.194-28.506Z" transform="translate(-58.142 -0.943)" fill="#41342a"/>
    <path id="Path_31" data-name="Path 31" d="M-764.244,1114.254l-7.414,5.65q-5.687,3.96-8.494,3.959a.388.388,0,0,1-.432-.445.8.8,0,0,1,.72-.851,12.041,12.041,0,0,0,3.743-1.257,74.446,74.446,0,0,0,8.782-6.286l9.5-7.794q2.735-2.407,3.347-2.407a3.113,3.113,0,0,1,2,1.008,6.411,6.411,0,0,1,3.7-1.583q2.439,0,2.44,2.628,0,3.923-6.263,10.689-6.37,6.84-10.293,6.839-3.672,0-3.671-3.851Q-766.583,1118.538-764.244,1114.254Zm8.674-4.428q-7.343,6.426-7.342,10.47,0,1.733,1.655,1.733,2.7,0,8.422-6.544a3.607,3.607,0,0,1-3.024-3.892A6.008,6.008,0,0,1-755.569,1109.826Zm3.527,4.5a16.99,16.99,0,0,0,2.663-3.434,8.6,8.6,0,0,0,1.476-3.976q0-1.374-1.188-1.374-1.764,0-3.546,2.223a6.729,6.729,0,0,0-1.781,4.031Q-754.418,1113.822-752.042,1114.328Z" transform="translate(-80.243 -20.143)" fill="#41342a"/>
    <path id="Path_32" data-name="Path 32" d="M-708.029,1114.6a1.293,1.293,0,0,1-1.116-1.44q0-2.339,3.1-6.172t5.291-3.833q1.26,0,1.26,1.331,0,3.528-7.415,11.158-7.523,7.7-11.374,7.7-3.023,0-3.023-3.276,0-2.807,3.095-7.055l5.039-6.227q-3.529,3.276-9.538,8.026l-6.695,5.183q-5.038,3.42-7.846,3.419a.388.388,0,0,1-.432-.445q0-.7.9-.851a14.8,14.8,0,0,0,3.131-1.006q2.2-.932,9.9-7.077,3.49-2.728,10.114-8.549,2.411-2.37,3.6-2.371a1.813,1.813,0,0,1,2.052,2.052q0,1.332-4.967,7.18t-4.967,7.972q0,1.115,1.044,1.115Q-714.437,1121.436-708.029,1114.6Zm1.043-1.044a36.243,36.243,0,0,0,3.276-3.924q2.267-3.095,2.267-4.175l-.288-.288q-1.08,0-3.509,3.186t-2.43,4.481Q-707.67,1113.41-706.986,1113.554Z" transform="translate(-97.226 -19.695)" fill="#41342a"/>
    <path id="Path_33" data-name="Path 33" d="M-674.729,1112.926l-7.522,5.9q-5.83,4.14-8.89,4.139a.388.388,0,0,1-.432-.445q0-.666.864-.851,3.347-.647,9.07-4.994l10.006-7.977q8.207-6.717,12.633-6.718,2.34,0,2.34,1.8.792,0,.792.719,0,.612-.9.648a14.745,14.745,0,0,1-2.7,5.075q-2.376,3.023-4.571,3.024-1.3,0-1.3-1.188,0-1.691,2.807-4.391a15.336,15.336,0,0,1,4.463-3.239l.072-.4a.446.446,0,0,0-.505-.5q-2.345,0-8.6,6.43t-6.26,8.98a2.3,2.3,0,0,0,1.386,2.263,8.942,8.942,0,0,0,2.59.5q1.386.148,1.386.628,0,.739-2.531.74-5.64,0-5.639-5.11A12.732,12.732,0,0,1-674.729,1112.926Zm16.053-6.874a11.894,11.894,0,0,0-2.952,2.36q-2.052,2-2.052,2.789l.288.286q.971,0,2.7-2.217A14.553,14.553,0,0,0-658.676,1106.052Z" transform="translate(-115.482 -19.247)" fill="#41342a"/>
    <path id="Path_34" data-name="Path 34" d="M-632.441,1099.276q13.029-11.589,17.421-11.589,1.943,0,1.943,2.051,0,2.2-6.173,8.351t-6.173,7.234q0,1.009,1.98,1.008.5,0,.5.576,0,.684-1.763.684-3.132,0-3.132-2.628,0-3.023,4.823-7.954a84.133,84.133,0,0,0,6.371-6.874q.035-.432-.432-.432-1.98,0-10.078,6.874-6.047,5.112-9.718,8.783a22.369,22.369,0,0,1-2.412,2.16,1.322,1.322,0,0,1-1.026-.684,2.228,2.228,0,0,1-.486-1.26q0-.828,4.931-7.09l5.723-7.2q-3.491,3.275-8.71,7.379l-6.91,5.29q-5.219,3.564-8.026,3.564a.388.388,0,0,1-.433-.445.829.829,0,0,1,.72-.851,18.591,18.591,0,0,0,5.255-2.155,119.235,119.235,0,0,0,12.633-9.7l7.27-6.142q2.3-1.943,12.777-14.217,9.429-11.049,10.33-11.049,1.3,0,1.3,1.62,0,1.115-7.234,9.645Z" transform="translate(-130.271 -3.798)" fill="#41342a"/>
    <path id="Path_35" data-name="Path 35" d="M-590.253,1117.632a32.935,32.935,0,0,0-6.767,3.311q-4.39,2.52-6.658,2.52-.432,0-.433-.481,0-.666.936-.814a20.346,20.346,0,0,0,6.19-2.683,28.656,28.656,0,0,1,7.163-3.148q1.655-4,6.838-8.386,5.507-4.715,9.394-4.715,2.879,0,2.879,2.447,0,3.2-6.083,6.983a43.1,43.1,0,0,1-9.142,4.391,5.883,5.883,0,0,0-.5,2.395,2.368,2.368,0,0,0,1.3,2.431,8.956,8.956,0,0,0,2.465.322q1.3.037,1.3.626,0,.921-4.444.921-4.7,0-4.7-4.067A9.376,9.376,0,0,1-590.253,1117.632Zm4.751-2.016a43.363,43.363,0,0,0,6.983-4.391q4.894-3.636,4.895-5.759,0-.864-.791-.864-2.341,0-6.371,4.319A24.2,24.2,0,0,0-585.5,1115.616Z" transform="translate(-150.108 -19.742)" fill="#41342a"/>
    <path id="Path_36" data-name="Path 36" d="M-538.467,1114.6a1.293,1.293,0,0,1-1.116-1.44q0-2.339,3.1-6.172t5.291-3.833q1.26,0,1.26,1.331,0,3.528-7.414,11.158-7.523,7.7-11.374,7.7-3.024,0-3.024-3.276,0-2.807,3.1-7.055l5.039-6.227q-3.528,3.276-9.538,8.026l-6.694,5.183q-5.039,3.42-7.846,3.419a.388.388,0,0,1-.433-.445q0-.7.9-.851a14.8,14.8,0,0,0,3.132-1.006q2.195-.932,9.9-7.077,3.491-2.728,10.114-8.549,2.41-2.37,3.6-2.371a1.814,1.814,0,0,1,2.052,2.052q0,1.332-4.968,7.18t-4.966,7.972q0,1.115,1.043,1.115Q-544.874,1121.436-538.467,1114.6Zm1.044-1.044a36.177,36.177,0,0,0,3.275-3.924q2.268-3.095,2.268-4.175l-.288-.288q-1.079,0-3.509,3.186t-2.429,4.481Q-538.107,1113.41-537.423,1113.554Z" transform="translate(-164.354 -19.695)" fill="#41342a"/>
    <path id="Path_37" data-name="Path 37" d="M-508.333,1116.293q-9.61,7.572-13.245,7.571-.431,0-.432-.482,0-.666.864-.814,3.384-.539,9.358-5.219l4.643-3.636,7.45-5.938q5.111-3.528,8.746-3.527a2.736,2.736,0,0,1,3.024,2.7q1.4-1.337,1.943-1.337,1.188,0,1.188.976,0,1.262-5.525,7.716t-5.525,7.517q0,.744,1.188.78t1.188.627q0,.739-2.448.739-2.411,0-2.411-2.127,0-1.694,1.943-4.832l-4.463,3.787q-3.276,2.454-5.219,2.453-3.1,0-3.1-3.137A10.476,10.476,0,0,1-508.333,1116.293Zm17.888-10.569q-2.124,0-8.782,6.35t-6.658,8.477q0,.975.936.974,2.052,0,8.8-6.223t6.748-8.387Q-489.4,1105.724-490.445,1105.723Z" transform="translate(-182.611 -20.143)" fill="#41342a"/>
  </g>
</svg>
