<svg xmlns="http://www.w3.org/2000/svg" viewBox="0 0 32.51 34.66"><defs><style>.cls-1{fill:#754c29;}</style></defs><g id="Layer_2" data-name="Layer 2"><g id="Layer_1-2" data-name="Layer 1"><path class="cls-1" d="M27.36,3.82l.21,26.89L.21,30.92,0,4Zm-.8,25.89L26.37,4.82,1,5,1.2,29.91Z"/><path class="cls-1" d="M32.25,0l.26,34.45-5.91,0L26.33.05ZM31.5,33.46,31.25,1,27.34,1l.25,32.45Z"/><path class="cls-1" d="M27.56,29.71l0,4.78-22.36.17,0-4.78Zm-1,3.78,0-2.78-20.36.16,0,2.78Z"/><path class="cls-1" d="M27.33,0l0,4.78L5,5,5,.21Zm-1,3.78,0-2.77L6,1.2,6,4Z"/></g></g></svg>