<svg xmlns="http://www.w3.org/2000/svg" viewBox="0 0 32.51 34.66"><defs><style>.cls-1{fill:#754c29;}</style></defs><g id="Layer_2" data-name="Layer 2"><g id="Layer_1-2" data-name="Layer 1"><path class="cls-1" d="M5.15,30.84,4.94,4,32.3,3.74l.21,26.89ZM6,4.94l.19,24.89,25.36-.19L31.31,4.75Z"/><path class="cls-1" d="M.26,34.66,0,.21l5.91,0,.27,34.45ZM1,1.2l.25,32.45,3.91,0L4.92,1.17Z"/><path class="cls-1" d="M5,5l0-4.78L27.27,0l0,4.78Zm1-3.79,0,2.78L26.3,3.79l0-2.78Z"/><path class="cls-1" d="M5.18,34.62l0-4.78,22.35-.17,0,4.78Zm1-3.79,0,2.78,20.35-.15,0-2.78Z"/></g></g></svg>