<svg xmlns="http://www.w3.org/2000/svg" viewBox="0 0 34.66 32.51"><defs><style>.cls-1{fill:#754c29;}</style></defs><g id="Layer_2" data-name="Layer 2"><g id="Layer_1-2" data-name="Layer 1"><path class="cls-1" d="M30.84,27.36,4,27.57,3.74.21,30.63,0Zm-25.9-.8,24.89-.19L29.64,1,4.75,1.2Z"/><path class="cls-1" d="M34.66,32.25.21,32.51l0-5.91,34.45-.27ZM1.2,31.5l32.45-.25,0-3.91-32.45.25Z"/><path class="cls-1" d="M5,27.56l-4.78,0L0,5.24l4.78,0Zm-3.79-1,2.78,0L3.79,6.21,1,6.24Z"/><path class="cls-1" d="M34.62,27.33l-4.78,0L29.67,5l4.78,0Zm-3.79-1,2.78,0L33.46,6,30.68,6Z"/></g></g></svg>